<?xml version="1.0" standalone="no"?>
<!DOCTYPE svg PUBLIC "-//W3C//DTD SVG 20010904//EN"
 "http://www.w3.org/TR/2001/REC-SVG-20010904/DTD/svg10.dtd">
<svg version="1.0" xmlns="http://www.w3.org/2000/svg"
 width="2048.000000pt" height="2048.000000pt" viewBox="0 0 2048.000000 2048.000000"
 preserveAspectRatio="xMidYMid meet">

<g transform="translate(0.000000,2048.000000) scale(0.100000,-0.100000)"
fill="#000000" stroke="none">
<path d="M12655 16192 c-69 -4 -80 -8 -65 -27 22 -26 4 -45 -42 -45 -39 -1
-41 -2 -24 -15 18 -13 17 -16 -19 -51 -32 -30 -41 -35 -56 -26 -15 9 -19 8
-24 -8 -9 -28 -25 -25 -25 5 0 16 -6 25 -15 25 -8 0 -15 5 -15 10 0 6 -13 4
-30 -5 -39 -20 -41 -19 -34 9 3 14 1 27 -7 31 -8 6 -10 4 -4 -5 5 -9 1 -11
-16 -6 -13 3 -18 3 -11 0 6 -3 12 -13 12 -23 0 -9 5 -22 12 -29 7 -7 8 -12 4
-12 -5 0 -15 8 -23 18 -11 13 -13 14 -12 2 3 -31 -1 -41 -13 -33 -20 12 -30
10 -74 -13 -26 -15 -45 -19 -54 -14 -16 10 -33 3 -25 -10 3 -5 12 -7 20 -3 11
4 13 1 9 -12 -5 -13 -3 -16 7 -13 8 3 13 11 11 17 -1 7 2 10 8 6 5 -3 10 -1
10 4 0 6 18 11 40 11 22 0 40 -4 40 -10 0 -5 -17 -10 -38 -10 -41 0 -64 -18
-76 -57 -4 -13 -12 -23 -17 -23 -5 0 -9 -5 -9 -11 0 -8 5 -7 15 1 23 19 27 7
9 -29 l-16 -32 -23 26 c-23 23 -53 36 -41 16 9 -14 -16 -20 -37 -9 -10 5 -16
5 -15 0 4 -14 -42 -73 -51 -68 -4 3 -17 -1 -27 -10 -18 -14 -18 -15 4 -4 12 6
22 7 22 3 0 -4 5 -2 12 5 13 13 32 17 25 5 -7 -10 55 -10 70 0 6 4 14 3 18 -3
3 -5 0 -10 -8 -10 -9 0 -17 -14 -21 -33 -8 -43 -41 -73 -61 -54 -8 9 -10 19
-4 28 7 11 9 11 9 -3 0 -10 5 -18 10 -18 15 0 12 26 -4 39 -12 10 -16 8 -22
-11 -4 -13 -7 -28 -6 -34 3 -17 -26 -37 -43 -30 -8 3 -15 1 -15 -4 0 -6 -5
-10 -12 -10 -9 0 -9 3 0 12 17 17 15 28 -4 21 -12 -4 -15 -2 -12 8 3 8 13 14
23 14 21 0 31 20 16 30 -6 3 -8 0 -5 -8 4 -10 -1 -15 -13 -14 -44 4 -88 -154
-87 -318 0 -110 3 -128 35 -220 19 -55 40 -101 47 -101 6 -1 20 -2 30 -3 14
-1 15 -3 2 -10 -8 -6 -18 -7 -23 -4 -13 8 22 -56 51 -94 13 -18 28 -30 33 -27
5 3 6 10 3 16 -4 7 -2 8 5 4 9 -6 9 -11 0 -22 -10 -12 -6 -21 19 -47 32 -33
41 -65 27 -102 -5 -14 -4 -16 3 -7 5 8 13 14 18 15 5 1 8 10 7 20 -2 9 4 17
11 17 23 0 46 -11 46 -22 0 -6 -7 -5 -15 2 -23 19 -30 5 -27 -56 2 -51 1 -55
-17 -49 -18 5 -19 2 -16 -35 3 -35 2 -40 -11 -29 -11 9 -14 8 -14 -4 0 -17 24
-40 33 -30 4 3 7 17 7 30 0 23 16 34 17 11 0 -7 4 -22 9 -32 5 -13 4 -17 -4
-12 -6 4 -21 1 -32 -6 -17 -11 -22 -11 -30 2 -5 8 -10 26 -11 40 -1 24 -38
-129 -39 -162 0 -12 39 5 153 69 83 46 162 91 175 99 21 14 29 13 79 -6 31
-11 58 -18 61 -15 3 3 -1 5 -9 6 -8 1 -3 4 11 8 14 4 28 3 32 -2 3 -6 25 -11
47 -11 23 -1 41 -6 41 -12 0 -6 -14 -9 -32 -8 -18 2 -4 -3 32 -11 146 -32 375
-12 533 45 120 44 264 130 252 150 -3 5 0 12 6 16 8 4 9 3 5 -4 -14 -23 10
-12 37 16 15 16 24 32 20 37 -5 4 -3 5 4 2 26 -16 142 145 190 263 62 155 69
351 18 504 -36 111 -60 151 -30 52 19 -62 19 -66 -2 -65 -10 0 -13 3 -7 5 7 3
10 13 7 23 -3 13 -13 18 -36 17 -26 -1 -33 3 -38 24 -6 24 -6 24 -14 -7 -10
-44 -25 -42 -25 2 0 19 -4 35 -10 35 -5 0 -10 7 -10 15 0 8 5 15 10 15 6 0 10
5 10 10 0 6 -9 10 -19 10 -19 0 -21 7 -12 63 2 10 31 9 31 -2 0 -6 -5 -13 -10
-16 -6 -4 -8 -11 -4 -16 12 -20 22 3 18 44 -4 39 -3 41 11 23 8 -11 15 -15 15
-10 0 5 -14 25 -30 44 -17 19 -29 28 -28 20 2 -10 -4 -14 -16 -12 -15 3 -16 1
-5 -11 8 -8 16 -12 19 -8 7 9 30 12 30 4 -1 -11 -26 -43 -34 -43 -4 0 -4 5 -1
10 7 11 -2 13 -55 11 -27 -1 -31 1 -20 8 10 7 11 11 3 11 -7 0 -10 6 -7 14 3
8 -4 16 -17 19 -14 4 -20 11 -16 21 4 9 3 15 -1 14 -4 -1 -17 2 -30 6 -20 7
-22 13 -19 47 2 21 7 42 12 46 4 5 5 1 0 -7 -5 -8 -5 -12 0 -8 4 4 17 3 29 -3
36 -18 -23 27 -69 52 l-40 21 27 -24 c27 -24 27 -26 10 -42 -22 -19 -39 -22
-24 -3 8 9 8 17 0 27 -8 13 -9 12 -5 -1 7 -20 -11 -39 -35 -39 -23 0 -23 17 0
23 13 4 12 5 -5 6 -12 0 -30 -7 -39 -16 -17 -17 -18 -17 -11 0 4 11 2 17 -9
17 -9 0 -12 -5 -8 -12 5 -9 2 -9 -9 1 -9 7 -17 20 -17 27 0 17 1 17 -39 3 -33
-12 -61 0 -61 25 0 6 4 5 9 -3 6 -10 10 -10 16 -1 4 6 3 16 -3 22 -6 6 -12 6
-16 -1 -10 -16 -36 -13 -36 4 0 8 6 14 13 13 7 -2 11 6 10 18 -1 12 4 21 13
21 9 0 12 -7 9 -17 -5 -17 21 -37 33 -25 3 3 0 5 -6 5 -7 0 -12 7 -12 16 0 10
6 14 15 11 8 -4 17 -2 20 3 7 12 -119 39 -213 46 -42 2 -90 6 -107 7 -16 1
-52 1 -80 -1z m131 -27 c17 -13 17 -14 2 -15 -10 0 -18 5 -18 10 0 15 -30 12
-31 -2 0 -10 -2 -10 -6 0 -2 6 -9 12 -14 12 -6 0 -7 -5 -4 -10 8 -13 -18 -8
-27 5 -5 6 -8 5 -8 -2 0 -17 -39 -16 -70 2 -23 13 -18 14 66 15 64 0 96 -4
110 -15z m183 -11 c10 -9 -7 -11 -48 -6 -28 3 -39 7 -30 13 12 7 67 2 78 -7z
m-599 -113 c0 -6 -4 -13 -10 -16 -5 -3 -10 1 -10 9 0 9 5 16 10 16 6 0 10 -4
10 -9z m710 -1 c0 -5 -5 -10 -11 -10 -5 0 -7 5 -4 10 3 6 8 10 11 10 2 0 4 -4
4 -10z m-86 -25 c-4 -8 -10 -15 -15 -15 -4 0 -6 7 -3 15 4 8 10 15 15 15 4 0
6 -7 3 -15z m96 -4 c0 -15 -38 -20 -44 -5 -4 10 2 14 19 14 14 0 25 -4 25 -9z
m-870 -101 c0 -5 -11 -10 -25 -10 -14 0 -25 5 -25 10 0 6 11 10 25 10 14 0 25
-4 25 -10z m1100 1 c0 -5 -5 -11 -11 -13 -8 -3 -8 -10 2 -25 19 -31 5 -39 -22
-14 -22 21 -22 21 -3 40 21 22 34 26 34 12z m-1100 -41 c0 -6 -11 -9 -25 -7
-37 5 -42 17 -7 17 18 0 32 -5 32 -10z m-25 -22 c3 -3 -5 -8 -19 -10 -16 -3
-23 -1 -19 8 4 12 27 13 38 2z m968 -21 c4 3 7 1 7 -5 0 -21 -16 -21 -30 1
-12 19 -11 21 2 10 8 -7 18 -10 21 -6z m-1123 -9 c0 -10 23 -6 33 7 5 6 7 4 4
-5 -4 -17 -58 -21 -64 -4 -2 6 3 11 12 11 8 0 15 -4 15 -9z m-44 -24 c-4 -9
-9 -15 -11 -12 -3 3 -3 13 1 22 4 9 9 15 11 12 3 -3 3 -13 -1 -22z m1084 -84
c0 -5 -5 -10 -11 -10 -5 0 -7 5 -4 10 3 6 8 10 11 10 2 0 4 -4 4 -10z m-785
-40 c-3 -5 -18 -10 -33 -10 -21 0 -24 2 -12 10 20 13 53 13 45 0z m585 0 c0
-5 -2 -10 -4 -10 -3 0 -8 5 -11 10 -3 6 -1 10 4 10 6 0 11 -4 11 -10z m60 0
c0 -5 -9 -10 -20 -10 -11 0 -20 5 -20 10 0 6 9 10 20 10 11 0 20 -4 20 -10z
m300 0 c-19 -13 -30 -13 -30 0 0 6 10 10 23 10 18 0 19 -2 7 -10z m220 -20 c0
-16 -4 -30 -10 -30 -5 0 -10 14 -10 30 0 17 5 30 10 30 6 0 10 -13 10 -30z
m-1280 0 c0 -5 -4 -10 -10 -10 -5 0 -10 5 -10 10 0 6 5 10 10 10 6 0 10 -4 10
-10z m-195 -16 c-9 -9 -19 -13 -23 -10 -3 4 0 11 8 16 24 15 33 11 15 -6z
m255 -14 c0 -13 -7 -20 -20 -20 -13 0 -20 7 -20 20 0 13 7 20 20 20 13 0 20
-7 20 -20z m807 -12 c-3 -8 -6 -5 -6 6 -1 11 2 17 5 13 3 -3 4 -12 1 -19z
m-1171 4 c-2 -4 -1 -14 5 -22 7 -13 9 -13 9 0 0 18 37 21 44 4 2 -6 -14 -15
-40 -21 -24 -6 -44 -6 -44 -2 0 5 5 9 10 9 6 0 10 5 10 11 0 5 -6 7 -12 3 -9
-5 -9 -2 1 9 14 17 26 24 17 9z m1664 -3 c0 -5 5 -7 10 -4 6 3 10 1 10 -4 0
-6 -9 -11 -20 -11 -11 0 -20 7 -20 15 0 8 5 15 10 15 6 0 10 -5 10 -11z
m-1561 -18 c16 -14 18 -21 9 -24 -10 -4 -10 -8 2 -16 12 -9 11 -11 -7 -11 -13
0 -24 -8 -28 -20 -6 -17 -8 -18 -21 -6 -18 19 -18 26 2 26 8 0 12 5 9 10 -3 6
-2 10 4 10 5 0 8 11 6 25 -3 30 -4 30 24 6z m201 -1 c0 -5 -2 -10 -4 -10 -3 0
-8 5 -11 10 -3 6 -1 10 4 10 6 0 11 -4 11 -10z m1057 -12 c-3 -8 -6 -5 -6 6
-1 11 2 17 5 13 3 -3 4 -12 1 -19z m-1082 -8 c3 -5 0 -10 -9 -10 -8 0 -22 -3
-32 -7 -16 -6 -17 -5 -4 10 17 19 36 22 45 7z m102 4 c-3 -3 -12 -4 -19 -1 -8
3 -5 6 6 6 11 1 17 -2 13 -5z m1010 -16 c-3 -8 -6 -5 -6 6 -1 11 2 17 5 13 3
-3 4 -12 1 -19z m-1369 -20 c2 -8 -4 -15 -12 -15 -8 0 -14 9 -13 19 1 21 21
19 25 -4z m340 -4 c2 -14 -3 -21 -13 -21 -11 0 -15 6 -12 18 3 11 -2 20 -12
23 -9 3 -5 4 9 3 17 -1 26 -9 28 -23z m68 11 c8 -8 14 -23 12 -32 -2 -14 3
-18 22 -16 16 1 11 -3 -15 -12 -27 -9 -33 -14 -18 -14 12 -1 30 -4 40 -7 15
-5 16 -4 3 5 -12 9 -10 11 12 8 15 -1 31 -7 35 -12 4 -4 3 -5 -4 -1 -6 3 -14
2 -18 -3 -3 -6 3 -15 14 -20 30 -17 56 -93 43 -130 -6 -17 -9 -41 -6 -55 2
-13 -2 -29 -11 -36 -18 -15 -18 -11 -4 26 10 28 10 28 -11 9 -13 -12 -18 -25
-14 -39 4 -17 3 -18 -5 -6 -10 14 -15 7 -12 -13 2 -14 -30 -20 -42 -7 -9 10
-8 11 9 6 14 -4 21 -2 21 8 0 10 -11 15 -37 14 -20 0 -46 4 -57 10 -11 6 -28
10 -39 8 -10 -2 -14 -1 -7 1 8 3 6 14 -7 36 -29 46 -26 108 5 146 14 16 35 33
45 36 11 4 20 13 20 21 0 8 4 14 9 14 5 0 11 7 15 15 3 9 0 15 -10 15 -8 0
-12 -4 -9 -10 7 -11 3 -12 -18 -4 -18 7 -10 54 10 54 8 0 21 -7 29 -15z m786
-22 c-22 -3 -30 -8 -25 -16 4 -7 0 -6 -10 2 -24 19 -22 21 26 19 37 -1 38 -2
9 -5z m-1092 -18 c0 -9 -6 -12 -15 -9 -8 4 -15 10 -15 15 0 5 7 9 15 9 8 0 15
-7 15 -15z m1020 5 c0 -5 -4 -10 -10 -10 -5 0 -10 5 -10 10 0 6 5 10 10 10 6
0 10 -4 10 -10z m150 0 c0 -5 -2 -10 -4 -10 -3 0 -8 5 -11 10 -3 6 -1 10 4 10
6 0 11 -4 11 -10z m110 -10 c0 -5 -2 -10 -4 -10 -3 0 -8 5 -11 10 -3 6 -1 10
4 10 6 0 11 -4 11 -10z m-1015 -9 c3 -5 2 -12 -3 -15 -5 -3 -9 1 -9 9 0 17 3
19 12 6z m836 -8 c8 -9 9 -14 3 -10 -7 4 -14 0 -18 -8 -8 -22 -22 -18 -23 7
-2 18 0 20 7 8 9 -14 14 -7 11 13 -2 12 6 8 20 -10z m-317 -5 c-3 -4 -11 -5
-19 -1 -21 7 -19 12 4 10 11 0 18 -5 15 -9z m412 -6 c-1 -8 5 -17 13 -20 9 -3
11 0 6 8 -5 9 -4 11 4 6 6 -4 9 -11 6 -16 -3 -4 3 -14 12 -21 20 -18 43 -71
43 -103 0 -13 7 -31 15 -40 16 -15 21 -31 7 -22 -4 2 -13 -4 -20 -15 -12 -18
-7 -24 19 -21 3 1 6 -5 6 -13 0 -11 -4 -12 -21 -2 -27 15 -38 15 -55 3 -12 -9
-13 -8 -6 3 6 11 4 13 -11 7 -43 -17 -80 -17 -113 2 -37 20 -71 73 -71 110 0
58 61 122 116 122 19 0 34 4 34 8 0 5 -13 7 -30 4 -19 -3 -30 0 -30 7 0 7 15
11 39 10 26 -2 38 -7 37 -17z m-996 4 c0 -2 -7 -6 -15 -10 -8 -3 -15 -1 -15 4
0 6 7 10 15 10 8 0 15 -2 15 -4z m590 -17 c8 -2 21 -11 28 -19 10 -11 12 -11
6 -1 -5 10 -3 12 5 7 7 -5 10 -10 7 -13 -3 -3 1 -18 9 -34 8 -15 15 -51 15
-78 0 -41 3 -49 15 -45 8 4 15 1 15 -5 0 -6 -5 -10 -12 -8 -7 1 -12 -5 -13
-13 0 -8 -8 -14 -17 -14 -9 1 -14 -4 -12 -11 3 -7 0 -16 -6 -20 -6 -3 -10 -3
-9 2 7 38 -16 38 -31 -1 -6 -13 -9 -15 -9 -6 -1 12 -9 15 -35 12 -55 -6 -102
22 -129 80 -24 49 -24 51 -6 87 18 37 52 74 79 84 14 6 67 4 100 -4z m-690
-54 c0 -5 -5 -3 -10 5 -5 8 -10 20 -10 25 0 6 5 3 10 -5 5 -8 10 -19 10 -25z
m487 -35 c1 -10 -2 -22 -8 -25 -7 -5 -7 -11 0 -19 8 -9 7 -13 -4 -13 -11 0
-14 10 -11 41 5 53 5 50 13 42 4 -3 8 -15 10 -26z m-420 -15 c0 -8 -4 -12 -9
-9 -5 3 -6 10 -3 15 9 13 12 11 12 -6z m1193 -71 c0 -8 -5 -12 -10 -9 -6 4 -8
11 -5 16 9 14 15 11 15 -7z m-1166 -19 c-4 -8 -8 -15 -10 -15 -2 0 -4 7 -4 15
0 8 4 15 10 15 5 0 7 -7 4 -15z m-347 -27 c-3 -8 -6 -5 -6 6 -1 11 2 17 5 13
3 -3 4 -12 1 -19z m1493 -8 c0 -16 -4 -30 -10 -30 -5 0 -10 14 -10 30 0 17 5
30 10 30 6 0 10 -13 10 -30z m-1431 -20 c0 -3 -14 -16 -32 -30 -17 -14 -28
-19 -24 -12 5 7 3 12 -3 12 -6 0 -8 5 -4 12 6 9 9 9 12 0 2 -7 8 -10 12 -7 5
3 7 11 4 18 -3 8 4 13 16 13 11 0 20 -3 19 -6z m1236 -8 c36 -7 38 -9 14 -13
-15 -3 -34 0 -44 7 -9 7 -23 10 -30 8 -7 -3 -16 -1 -19 4 -6 10 5 10 79 -6z
m-375 -12 c0 -13 -11 -13 -30 0 -12 8 -11 10 8 10 12 0 22 -4 22 -10z m-854
-87 c-3 -8 -11 -11 -18 -7 -8 5 -9 2 -4 -12 5 -14 4 -16 -4 -8 -12 12 -3 44
12 44 6 0 6 6 -1 14 -10 12 -9 20 1 38 13 22 13 22 16 -16 2 -21 1 -45 -2 -53z
m-39 42 c0 -8 -4 -12 -9 -9 -5 3 -6 10 -3 15 9 13 12 11 12 -6z m80 -57 c-3
-8 -6 -5 -6 6 -1 11 2 17 5 13 3 -3 4 -12 1 -19z m447 -9 c-4 -8 1 -9 17 -5
22 7 23 6 6 -7 -14 -11 -15 -16 -5 -20 7 -3 3 -6 -10 -6 -13 -1 -21 3 -18 8 4
5 0 12 -6 14 -10 4 -9 8 2 16 19 14 23 14 14 0z m-24 -34 c0 -5 -5 -3 -10 5
-5 8 -10 20 -10 25 0 6 5 3 10 -5 5 -8 10 -19 10 -25z m80 5 c0 -5 -2 -10 -4
-10 -3 0 -8 5 -11 10 -3 6 -1 10 4 10 6 0 11 -4 11 -10z m-471 -27 c0 -11 -3
-13 -6 -5 -2 6 -10 9 -15 6 -7 -4 -8 -2 -4 4 11 18 26 14 25 -5z m-45 -8 c-4
-8 -11 -15 -16 -15 -6 0 -5 6 2 15 7 8 14 15 16 15 2 0 1 -7 -2 -15z m596
-215 c0 -11 -7 -20 -15 -20 -8 0 -15 5 -15 10 0 6 -7 10 -15 10 -8 0 -15 -4
-15 -10 0 -5 -7 -10 -15 -10 -8 0 -15 9 -15 20 0 17 7 20 45 20 38 0 45 -3 45
-20z m667 4 c-3 -3 -12 -4 -19 -1 -8 3 -5 6 6 6 11 1 17 -2 13 -5z m-674 -41
c-7 -2 -21 -2 -30 0 -10 3 -4 5 12 5 17 0 24 -2 18 -5z m-423 -40 c0 12 30
-20 30 -32 0 -6 12 -11 26 -11 14 0 22 -4 19 -10 -3 -6 1 -7 9 -4 11 4 16 0
16 -14 0 -24 23 -35 39 -19 6 6 11 7 11 1 0 -12 -37 -44 -51 -44 -8 0 -8 4 0
13 11 14 5 27 -13 27 -6 0 -4 -5 4 -10 8 -5 10 -10 4 -10 -18 0 -24 13 -13 27
9 10 8 13 -4 13 -8 0 -17 -3 -20 -7 -2 -5 -2 -2 -1 5 2 6 -3 12 -11 12 -11 0
-15 -12 -15 -45 0 -35 3 -43 15 -39 8 4 13 9 10 13 -2 4 2 8 10 8 23 0 17 -25
-7 -33 -39 -13 -44 -12 -46 10 0 11 -6 22 -12 24 -5 2 -10 19 -10 38 0 21 4
33 10 29 15 -9 11 17 -5 39 -8 11 -15 25 -15 30 0 6 5 4 10 -4 5 -8 10 -11 10
-7z m478 -15 c-6 -18 -28 -21 -28 -4 0 9 7 16 16 16 9 0 14 -5 12 -12z m-191
-74 c0 -7 -6 -10 -14 -7 -7 3 -13 8 -13 12 0 4 6 8 13 8 8 0 14 -6 14 -13z
m-97 2 c0 -2 -7 -6 -15 -10 -8 -3 -15 -1 -15 4 0 6 7 10 15 10 8 0 15 -2 15
-4z m315 -46 c3 -5 -1 -10 -10 -10 -9 0 -13 5 -10 10 3 6 8 10 10 10 2 0 7 -4
10 -10z m128 -17 c-18 -2 -48 -2 -65 0 -18 2 -4 4 32 4 36 0 50 -2 33 -4z m90
0 c-7 -2 -19 -2 -25 0 -7 3 -2 5 12 5 14 0 19 -2 13 -5z"/>
<path d="M13252 15260 c-18 -24 -19 -28 -5 -26 19 3 48 42 36 49 -4 2 -18 -8
-31 -23z"/>
<path d="M12535 16170 c3 -5 10 -10 16 -10 5 0 9 5 9 10 0 6 -7 10 -16 10 -8
0 -12 -4 -9 -10z"/>
<path d="M12465 16159 c-16 -7 -13 -8 13 -5 19 3 36 7 40 10 9 9 -31 6 -53 -5z"/>
<path d="M12475 16129 c-4 -6 -5 -12 -2 -15 2 -3 7 2 10 11 7 17 1 20 -8 4z"/>
<path d="M13080 16130 c8 -5 20 -10 25 -10 6 0 3 5 -5 10 -8 5 -19 10 -25 10
-5 0 -3 -5 5 -10z"/>
<path d="M12320 16110 c-9 -6 -10 -10 -3 -10 6 0 15 5 18 10 8 12 4 12 -15 0z"/>
<path d="M12435 16090 c-3 -6 1 -7 9 -4 18 7 21 14 7 14 -6 0 -13 -4 -16 -10z"/>
<path d="M13111 16074 c0 -11 3 -14 6 -6 3 7 2 16 -1 19 -3 4 -6 -2 -5 -13z"/>
<path d="M12167 16030 c-51 -32 -58 -41 -27 -33 11 3 20 10 20 15 0 6 7 8 15
4 8 -3 14 -1 12 4 -1 5 7 16 18 24 33 26 12 18 -38 -14z"/>
<path d="M12230 16040 c-8 -5 -12 -12 -9 -15 4 -3 12 1 19 10 14 17 11 19 -10
5z"/>
<path d="M12074 15939 c0 -10 6 -19 14 -19 7 0 10 -4 7 -10 -3 -5 -2 -10 4
-10 16 0 8 41 -9 50 -12 6 -16 4 -16 -11z"/>
<path d="M13367 15927 c-3 -8 1 -14 8 -14 7 0 11 6 8 14 -3 7 -6 13 -8 13 -2
0 -5 -6 -8 -13z"/>
<path d="M12037 15910 c6 -7 9 -18 6 -25 -3 -9 2 -12 15 -9 10 3 19 12 19 20
0 8 -2 12 -5 9 -3 -2 -14 1 -26 7 -17 8 -19 8 -9 -2z"/>
<path d="M11984 15868 c-17 -18 -37 -42 -45 -52 -13 -18 -13 -19 9 -7 12 6 22
18 22 25 0 7 9 21 19 30 18 17 20 17 30 -1 10 -17 10 -17 11 0 0 9 -5 17 -11
17 -5 0 -7 5 -4 10 12 19 -1 10 -31 -22z"/>
<path d="M13523 15795 c0 -8 4 -12 9 -9 5 3 6 10 3 15 -9 13 -12 11 -12 -6z"/>
<path d="M11915 15670 c-3 -6 1 -7 9 -4 18 7 21 14 7 14 -6 0 -13 -4 -16 -10z"/>
<path d="M9560 14773 c-193 -18 -339 -38 -410 -53 -73 -17 -77 -19 -30 -14 30
2 71 7 90 11 19 3 32 2 27 -3 -4 -4 -17 -9 -30 -11 -38 -6 -44 -23 -8 -23 24
0 34 -5 38 -20 6 -23 43 -27 43 -5 0 8 5 15 10 15 6 0 13 -7 16 -15 4 -8 14
-15 24 -15 15 0 16 -4 7 -40 -10 -36 -37 -57 -37 -28 0 6 -6 4 -13 -6 -13 -18
-21 -18 -128 -6 -63 7 -122 13 -131 14 -9 0 -14 4 -11 9 2 4 -7 5 -22 1 -18
-4 -30 -2 -37 7 -7 10 -7 8 -3 -8 5 -17 2 -23 -9 -23 -14 0 -19 10 -18 30 0 3
-12 6 -26 7 -15 0 -28 6 -30 12 -2 6 -12 11 -21 11 -14 0 -17 -6 -14 -23 3
-17 0 -24 -11 -24 -8 0 -13 4 -11 8 3 3 -2 12 -10 19 -13 11 -14 10 -10 -1 3
-8 -3 -19 -14 -26 -16 -10 -20 -9 -25 2 -8 21 -46 19 -47 -2 0 -11 -3 -13 -6
-5 -2 6 -10 9 -15 6 -6 -4 -21 -8 -32 -10 -31 -3 -86 -34 -62 -34 12 0 16 -5
12 -15 -4 -11 1 -15 17 -15 16 0 18 -3 9 -9 -11 -7 -11 -9 2 -14 9 -4 16 -2
16 2 0 14 32 23 44 11 7 -7 6 -10 -2 -10 -7 0 -17 -11 -24 -25 -6 -13 -15 -22
-19 -19 -14 8 -10 -13 4 -25 10 -7 17 -7 24 0 8 8 13 7 18 -2 5 -8 4 -10 -3
-5 -8 5 -12 0 -12 -14 0 -24 -37 -42 -62 -29 -23 13 -28 11 -28 -7 0 -12 -6
-15 -22 -10 -13 3 -38 6 -55 6 -28 0 -33 3 -33 25 0 23 -3 25 -50 25 -37 0
-50 4 -50 14 0 8 5 18 10 21 14 8 13 25 -2 25 -6 0 -8 -3 -5 -7 11 -11 -24
-43 -47 -43 -17 0 -18 2 -6 10 8 5 11 12 7 16 -3 4 -13 1 -21 -5 -9 -8 -16 -8
-20 -2 -4 6 7 17 24 26 38 19 39 28 3 14 -35 -13 -174 -83 -231 -116 -36 -22
-41 -27 -30 -41 11 -13 10 -14 -8 -4 -19 10 -34 3 -113 -49 -87 -57 -109 -75
-76 -63 8 4 15 1 15 -5 0 -6 -7 -11 -15 -11 -14 0 -19 -11 -16 -37 1 -6 -8
-14 -19 -18 -11 -4 -35 -19 -52 -35 -17 -16 -35 -27 -40 -24 -16 10 -8 22 22
33 17 5 30 15 30 21 0 6 4 9 9 6 4 -3 17 2 27 10 18 15 18 15 1 10 -12 -4 -17
-2 -14 6 2 7 9 12 14 11 5 -1 10 4 10 12 0 9 -11 5 -34 -12 -18 -14 -30 -30
-26 -36 3 -5 1 -7 -5 -3 -6 3 -37 -16 -69 -42 -55 -46 -101 -94 -76 -79 6 4
14 3 18 -3 3 -5 -1 -10 -9 -10 -8 0 -18 -6 -22 -12 -4 -7 -4 -10 1 -6 4 4 14
3 22 -3 10 -9 13 -8 13 4 0 24 20 31 38 13 20 -20 8 -33 -14 -15 -15 12 -16
12 -10 -8 5 -16 2 -23 -13 -28 -23 -7 -18 -41 9 -55 12 -7 17 -24 19 -65 l2
-55 -41 0 c-34 0 -40 -3 -40 -21 0 -15 -5 -19 -15 -15 -8 3 -15 0 -15 -7 0 -9
-3 -8 -9 1 -6 10 -10 8 -14 -9 -5 -17 -9 -20 -19 -11 -16 13 -98 22 -98 11 0
-5 6 -9 13 -9 9 0 9 -2 -1 -9 -10 -6 -8 -10 10 -16 23 -8 23 -8 -4 -12 -16 -2
-28 -9 -28 -14 0 -5 -7 -9 -15 -9 -8 0 -15 5 -15 10 0 6 7 10 15 10 14 0 20
18 15 50 -3 22 -8 24 -25 10 -12 -10 -19 -10 -27 -2 -9 9 -6 19 13 39 13 15
17 22 8 15 -9 -7 -37 -40 -64 -75 l-47 -62 41 42 c23 23 41 41 42 40 1 -1 3
-19 5 -41 3 -38 -15 -73 -31 -58 -5 4 -5 2 -1 -5 3 -6 2 -14 -4 -18 -6 -4 -5
-12 5 -21 18 -19 19 -34 3 -34 -7 0 -5 -5 5 -11 9 -5 17 -15 17 -22 0 -8 -3
-9 -8 -1 -12 18 -50 23 -56 8 -6 -16 -26 -19 -26 -3 0 5 4 8 9 5 5 -4 8 2 6
11 -2 10 -4 21 -4 26 -1 4 -9 7 -18 7 -15 0 -14 -2 3 -15 11 -8 14 -15 7 -15
-7 0 -13 -11 -13 -24 0 -32 10 -57 20 -51 5 3 11 1 15 -5 3 -5 -3 -10 -14 -10
-12 0 -21 7 -21 16 0 8 -5 12 -10 9 -7 -4 -9 2 -4 19 3 15 2 32 -4 39 -10 12
-12 17 -12 39 0 15 -70 -81 -100 -137 -12 -22 -15 -33 -8 -25 19 22 42 25 34
5 -3 -9 -6 -19 -6 -21 0 -3 -6 -2 -12 2 -7 4 -10 4 -6 -1 4 -4 3 -14 -3 -21
-7 -8 -7 -14 1 -19 15 -9 12 -22 -6 -29 -10 -4 -13 -2 -8 7 4 6 -2 4 -13 -6
l-21 -19 46 -47 c26 -26 63 -54 82 -64 33 -16 34 -17 13 -23 -32 -9 -28 -21
10 -30 17 -4 26 -9 18 -12 -18 -6 -57 -45 -54 -54 2 -4 -9 -3 -23 2 -33 13
-43 12 -24 -1 12 -9 11 -10 -7 -6 -14 3 -21 0 -20 -7 1 -6 -10 -12 -25 -14
-16 -2 -28 -8 -28 -13 0 -6 -16 -17 -35 -25 -19 -8 -35 -19 -35 -25 0 -10 -24
-39 -33 -39 -3 0 -7 9 -10 21 -3 12 -10 18 -17 14 -6 -4 -17 -2 -25 5 -10 8
-15 8 -20 0 -4 -6 -4 -14 -1 -17 3 -4 6 -1 6 6 0 7 5 9 10 6 6 -3 10 -13 10
-21 0 -10 -5 -12 -12 -8 -10 6 -10 4 0 -8 7 -9 9 -18 4 -20 -5 -1 -19 -21 -31
-43 -12 -22 -19 -30 -16 -17 4 12 2 22 -3 22 -12 0 -87 -219 -78 -227 3 -4 6
0 6 8 0 11 2 11 10 -1 14 -22 12 -29 -9 -23 -14 4 -20 -4 -29 -36 -7 -29 -7
-43 1 -48 6 -3 7 -1 3 5 -4 7 -3 12 3 12 6 0 8 6 6 13 -3 6 4 18 16 25 12 8
18 9 14 3 -3 -6 -1 -11 5 -11 6 0 8 -5 5 -10 -4 -6 -10 -8 -15 -5 -5 3 -7 -4
-5 -15 3 -16 -2 -22 -26 -27 -32 -6 -34 -10 -15 -35 12 -16 13 -16 28 2 9 10
14 21 11 24 -4 3 1 6 9 6 9 0 19 -10 23 -22 4 -14 8 -18 12 -10 7 19 23 14 23
-7 0 -10 -8 -22 -17 -27 -21 -9 -73 -12 -68 -4 2 3 -7 10 -20 16 -24 11 -24
11 -54 -115 -16 -69 -40 -184 -52 -254 -18 -108 -20 -132 -9 -153 8 -13 19
-24 27 -24 17 0 17 -37 1 -43 -10 -4 -9 -8 2 -16 12 -9 13 -14 3 -31 -15 -24
-17 -70 -3 -70 6 0 10 -20 10 -45 0 -35 -6 -52 -24 -70 -13 -13 -27 -21 -30
-18 -3 4 -6 -1 -6 -10 0 -9 -5 -19 -10 -22 -22 -14 -2 37 21 52 13 9 26 18 28
20 2 1 -8 14 -24 28 -15 15 -24 29 -20 33 4 4 12 -1 19 -11 7 -9 16 -17 20
-17 11 0 6 58 -6 62 -6 2 -12 12 -14 21 -1 9 2 14 8 11 6 -4 7 7 3 28 -3 18
-7 50 -10 72 -2 21 -6 40 -8 42 -5 5 -27 -202 -26 -241 0 -24 2 -26 8 -11 7
19 8 19 13 -2 4 -15 1 -23 -13 -27 -18 -6 -20 -15 -17 -78 2 -52 7 -71 18 -74
12 -4 12 -3 1 5 -17 12 1 23 19 11 8 -5 11 -9 6 -9 -5 0 -2 -8 5 -17 12 -15
12 -16 -2 -11 -13 5 -18 -1 -23 -23 -3 -18 -10 -28 -16 -24 -6 4 -8 15 -5 25
3 10 1 21 -5 25 -16 10 -13 -625 5 -840 8 -99 15 -186 15 -193 0 -7 4 -11 9
-8 5 4 7 -10 4 -31 -5 -44 35 -311 72 -475 29 -131 95 -349 104 -344 3 2 13
-3 21 -12 13 -14 12 -15 -3 -9 -24 9 -22 -1 19 -111 95 -252 225 -501 372
-709 36 -51 69 -90 75 -86 6 3 7 1 4 -4 -8 -13 106 -149 122 -146 6 2 10 0 10
-5 -3 -18 2 -24 14 -14 9 8 17 8 27 0 12 -8 12 -9 -2 -4 -23 7 -33 -11 -18
-30 10 -12 16 -12 29 -2 14 11 14 11 4 -3 -10 -13 -5 -22 30 -57 24 -24 47
-39 52 -35 4 5 5 3 2 -3 -4 -6 2 -19 13 -29 11 -10 20 -16 20 -14 0 2 30 -24
66 -58 36 -35 70 -60 76 -57 7 4 8 2 4 -4 -7 -11 32 -38 47 -34 5 1 6 -1 3 -6
-7 -11 52 -55 64 -47 5 3 12 0 16 -6 4 -8 3 -9 -4 -5 -7 4 -12 5 -12 3 0 -13
161 -108 171 -101 7 4 9 3 5 -4 -11 -18 304 -188 331 -178 8 3 12 2 9 -3 -11
-17 335 -147 362 -136 7 3 11 1 8 -4 -16 -25 615 -153 675 -138 11 3 19 1 19
-4 0 -5 20 -9 45 -9 25 0 45 5 45 10 0 6 5 10 11 10 6 0 9 -6 6 -14 -7 -19
115 -26 447 -26 466 0 842 50 1200 161 96 29 98 31 80 50 -14 16 -20 17 -33 6
-14 -10 -14 -10 -4 4 11 13 7 20 -20 45 -17 16 -24 20 -14 8 9 -11 17 -26 17
-32 0 -19 -40 9 -40 28 -1 9 -6 6 -16 -10 l-15 -25 6 28 c4 21 2 28 -7 25 -7
-3 -13 -16 -12 -29 1 -13 -1 -16 -3 -6 -3 9 -8 17 -13 17 -4 0 -7 11 -5 25 1
14 -2 28 -6 31 -5 3 -9 0 -9 -7 0 -7 -2 -10 -5 -8 -2 3 0 20 5 38 9 33 8 34
-145 189 -85 87 -155 159 -155 162 0 3 -37 41 -81 85 -45 44 -79 72 -76 63 4
-10 2 -18 -4 -18 -7 0 -9 10 -5 23 4 19 -9 37 -72 100 l-78 77 -48 -6 c-33 -5
-44 -10 -34 -16 9 -7 5 -8 -12 -4 -35 8 -232 -6 -200 -14 79 -21 -525 16 -668
41 -133 22 -125 22 -117 9 6 -11 -44 -34 -53 -25 -3 3 1 5 9 5 10 1 9 4 -4 11
-10 6 -25 8 -33 5 -8 -3 -14 -1 -14 4 0 5 -9 7 -20 5 -11 -2 -22 1 -25 6 -4 5
-11 7 -16 4 -5 -4 -9 1 -9 9 0 9 5 16 10 16 6 0 10 -5 10 -12 0 -9 3 -9 12 0
15 15 19 13 -92 52 -52 18 -123 46 -157 61 -51 23 -62 25 -67 13 -3 -9 -11
-12 -18 -8 -7 4 -23 8 -36 9 -19 1 -22 -3 -17 -22 8 -32 -1 -29 -13 5 -8 24
-7 31 11 41 17 11 19 11 14 -3 -4 -9 -2 -16 3 -16 6 0 10 5 10 11 0 6 9 8 23
4 12 -3 -7 11 -43 32 -36 21 -70 37 -77 35 -6 -1 -15 3 -19 9 -4 8 -3 9 4 5 7
-4 12 -5 12 -3 0 3 -15 14 -33 25 -31 18 -35 18 -46 3 -10 -14 -11 -13 -6 5 7
27 -61 85 -71 60 -3 -8 -14 -14 -24 -13 -11 1 -16 6 -12 16 4 10 1 13 -11 8
-9 -3 -17 -2 -17 4 0 6 -4 7 -10 4 -6 -3 -7 1 -4 9 4 9 -1 18 -10 22 -9 3 -15
16 -15 28 1 17 2 17 6 3 2 -9 9 -14 15 -11 5 4 -23 40 -65 83 -41 42 -96 103
-122 136 -27 33 -53 60 -59 60 -6 0 -11 7 -11 15 0 8 -9 28 -20 43 -18 25 -21
26 -21 8 0 -11 3 -18 6 -16 3 1 10 -3 17 -10 10 -11 10 -14 0 -18 -14 -4 -41
29 -49 60 -4 17 -2 20 11 16 15 -4 15 -3 0 9 -9 7 -17 18 -17 23 -1 6 -29 60
-61 120 -76 139 -92 177 -151 353 -26 78 -50 137 -53 130 -2 -7 -8 -10 -12 -6
-4 4 -3 13 3 20 13 17 3 68 -14 68 -7 0 -16 4 -19 10 -4 6 1 7 11 3 14 -5 16
-2 11 18 -4 13 -7 30 -7 37 0 6 -8 12 -17 12 -15 0 -15 2 -4 9 12 8 12 21 -2
93 -50 255 -81 666 -75 991 3 173 2 187 -14 187 -23 0 -23 33 -1 51 9 8 14 10
11 4 -3 -5 -2 -19 3 -30 5 -14 8 -5 8 31 2 114 48 486 76 609 9 39 11 75 6
103 -7 35 -6 42 8 42 13 0 13 2 3 9 -8 4 -13 11 -13 15 3 19 0 26 -13 26 -8 0
-16 -6 -18 -12 -3 -9 -9 -8 -22 5 -10 9 -13 17 -7 17 6 0 11 7 11 15 0 21 38
19 43 -2 3 -13 5 -12 6 5 1 15 5 21 13 16 8 -5 9 -2 4 11 -5 15 -4 16 8 6 13
-11 14 -43 1 -79 -3 -7 0 -10 5 -7 6 3 10 12 10 19 0 21 54 190 94 296 34 92
90 208 162 335 18 34 32 65 29 68 -3 4 -2 5 2 2 3 -3 20 14 37 38 102 141 251
298 374 392 34 26 62 53 62 58 0 6 3 8 6 4 3 -3 36 13 72 35 206 127 461 215
742 257 117 18 140 24 80 22 -14 0 -3 6 24 14 50 14 93 8 46 -7 -14 -4 33 -6
104 -3 89 3 132 9 138 17 6 10 8 10 8 1 0 -8 13 -13 31 -13 17 0 28 4 24 10
-8 13 199 5 222 -9 13 -8 0 -10 -52 -5 -38 3 -75 7 -81 9 -6 2 -17 -1 -25 -6
-9 -6 3 -9 36 -9 47 0 139 -9 264 -26 35 -4 52 -3 48 3 -3 5 0 10 7 10 8 0 12
-5 10 -11 -2 -7 37 -21 98 -35 57 -13 153 -41 213 -63 61 -22 122 -41 137 -41
14 -1 30 -6 34 -10 5 -4 0 -5 -11 -2 -11 4 18 -14 65 -40 187 -102 294 -182
429 -316 192 -192 323 -406 429 -695 35 -98 51 -129 62 -126 12 4 13 2 3 -9
-20 -20 -16 -27 12 -21 15 2 25 0 25 -7 0 -7 -4 -9 -10 -6 -5 3 -10 1 -10 -5
0 -6 -5 -8 -12 -4 -7 5 -9 2 -5 -9 26 -69 103 -488 119 -650 l3 -27 40 21 40
21 -25 -25 c-14 -14 -29 -24 -35 -23 -14 2 -6 -327 9 -336 6 -4 7 -8 1 -8 -6
0 -10 -110 -10 -310 0 -330 0 -329 48 -330 12 0 17 8 17 31 0 19 4 28 11 23 6
-3 9 -19 7 -35 -3 -21 0 -29 11 -29 11 0 11 -3 -4 -14 -16 -11 -21 -11 -33 0
-17 17 -35 18 -29 2 2 -7 10 -12 16 -11 20 5 12 -19 -9 -24 -12 -3 -20 -14
-21 -27 -1 -14 -4 -9 -11 14 -7 25 -6 40 2 53 6 11 7 16 1 13 -5 -3 -12 2 -15
11 -3 10 -3 -11 0 -47 12 -151 13 -204 5 -191 -7 11 -9 11 -14 0 -3 -8 -6 0
-7 16 -1 17 -8 -10 -16 -60 -8 -49 -12 -103 -9 -120 3 -16 1 -24 -3 -18 -5 7
-17 -36 -30 -105 -11 -64 -33 -156 -46 -204 -24 -80 -26 -125 -6 -113 4 3 11
-2 14 -11 6 -15 4 -15 -18 -1 -24 16 -25 16 -41 -32 -8 -26 -13 -56 -9 -67 4
-12 3 -15 -3 -7 -6 8 -23 -22 -53 -93 -25 -59 -66 -142 -92 -186 -26 -44 -45
-86 -41 -92 3 -6 3 -8 -2 -4 -11 11 -38 -29 -29 -44 4 -6 3 -8 -3 -5 -6 4 -18
-4 -27 -18 -11 -17 -12 -24 -4 -23 6 2 14 -5 16 -14 2 -10 -2 -18 -8 -18 -6 0
-9 4 -6 9 9 14 -22 7 -37 -9 -6 -7 -7 -10 -2 -7 6 3 17 2 24 -2 10 -7 10 -12
0 -30 -8 -11 -18 -21 -23 -21 -4 0 -3 7 4 15 10 12 9 15 -7 15 -11 0 -34 -19
-54 -42 -18 -24 -54 -65 -79 -93 -25 -27 -34 -41 -21 -30 l24 20 -14 -22 c-19
-31 -27 -29 -71 14 -21 20 -38 34 -38 30 0 -3 10 -15 22 -27 l22 -20 -25 -1
-24 0 23 -9 c31 -13 28 -15 -16 -14 -87 4 -88 4 -72 14 20 13 43 13 35 0 -3
-5 -2 -10 3 -10 6 0 12 7 16 15 6 16 -50 58 -65 49 -16 -10 3 -35 22 -29 30
10 22 -2 -8 -13 -27 -9 -28 -8 -30 24 -1 24 3 34 13 34 8 0 12 5 9 10 -9 14
28 12 45 -2 8 -7 6 -3 -5 10 -11 13 -25 20 -34 17 -8 -3 -12 -3 -8 1 12 12
-33 53 -51 47 -9 -4 -13 -2 -9 5 7 10 -142 145 -186 169 -20 10 -29 5 -89 -53
-46 -43 -66 -68 -62 -79 5 -12 11 -7 24 17 13 25 23 32 40 30 16 -3 20 0 15
10 -6 10 -5 10 5 1 16 -15 3 -36 -20 -30 -14 3 -17 0 -13 -12 4 -12 3 -13 -5
-2 -7 9 -12 10 -16 2 -4 -6 -4 -11 0 -11 3 0 1 -7 -6 -15 -7 -8 -10 -21 -7
-29 4 -10 1 -13 -8 -10 -8 3 -12 11 -9 17 2 7 0 18 -5 26 -7 12 -40 -14 -148
-116 -76 -72 -147 -140 -157 -152 l-20 -22 104 -104 c57 -57 108 -101 114 -98
6 3 8 3 4 -2 -10 -11 11 -37 23 -29 5 3 8 2 7 -3 -5 -14 333 -334 345 -327 7
4 8 3 4 -1 -4 -5 113 -129 260 -277 226 -226 269 -265 282 -255 14 10 14 10 3
-5 -11 -13 -11 -18 0 -24 7 -5 16 -9 21 -9 4 0 7 -4 7 -10 0 -17 203 -214 213
-208 6 3 7 2 4 -4 -8 -13 57 -76 68 -66 4 5 5 3 2 -3 -6 -10 215 -239 231
-239 4 0 6 -2 5 -6 -2 -7 327 -334 337 -334 5 0 12 -4 17 -9 5 -6 2 -6 -7 -1
-13 8 -13 6 -1 -8 7 -9 17 -14 22 -11 5 3 9 -1 9 -8 0 -8 16 -30 35 -48 30
-29 38 -32 46 -20 8 12 9 11 5 -6 -7 -25 55 -91 75 -79 8 6 10 4 4 -4 -4 -8
11 -30 43 -61 l49 -49 70 62 c100 88 432 380 539 473 50 43 89 83 87 87 -3 5
-11 0 -19 -10 -13 -17 -13 -17 -14 5 0 26 28 42 40 22 4 -7 13 -9 19 -5 23 13
-7 35 -34 25 -15 -6 -27 -6 -30 0 -6 10 9 15 30 10 5 -1 1 8 -9 19 -23 25 -34
28 -15 4 12 -15 12 -16 -3 -10 -18 6 -32 -5 -21 -17 21 -21 -6 -74 -29 -60
-13 8 -9 24 6 24 22 0 14 56 -11 79 -15 14 -24 16 -31 9 -8 -8 -16 -7 -28 3
-13 11 -18 11 -21 2 -6 -18 -33 -16 -33 1 0 8 -5 18 -12 22 -7 4 -8 3 -4 -4 4
-7 1 -12 -9 -12 -12 0 -15 6 -10 20 5 15 3 18 -9 14 -9 -3 -19 3 -26 16 -6 11
-16 18 -22 14 -6 -4 -8 1 -4 14 9 26 -22 90 -47 98 -14 4 -16 8 -7 14 9 6 8
10 -6 19 -16 9 -16 10 -3 11 9 0 34 -14 55 -31 49 -38 53 -44 32 -36 -10 3
-20 2 -22 -2 -3 -5 5 -7 17 -7 12 1 28 -2 35 -7 6 -5 12 -7 12 -4 0 3 -33 33
-74 66 -50 41 -77 57 -82 50 -4 -8 -3 -9 4 -5 7 4 12 2 12 -3 0 -15 -21 -13
-44 4 -24 18 -40 20 -30 3 5 -7 2 -9 -8 -6 -11 5 -14 0 -10 -18 3 -20 0 -24
-18 -24 -21 0 -22 1 -8 18 9 9 14 22 11 28 -2 6 7 16 19 23 13 6 15 9 5 6 -11
-3 -20 2 -24 11 -5 14 -8 13 -18 -6 -8 -15 -15 -19 -19 -11 -4 6 -3 11 2 11 5
0 12 9 15 20 3 11 1 20 -4 20 -5 0 -9 -4 -9 -10 0 -5 -5 -10 -11 -10 -5 0 -7
4 -4 10 3 5 -1 20 -10 33 -18 27 -9 42 14 25 10 -8 9 -4 -3 10 -21 25 -27 27
-24 11 2 -6 -3 -14 -11 -17 -8 -2 -11 0 -7 6 4 6 -2 8 -16 4 -12 -3 -19 -1
-15 4 3 6 -4 11 -15 11 -16 2 -18 -1 -9 -10 18 -18 13 -28 -8 -15 -15 9 -17
15 -8 29 6 10 15 15 21 12 5 -3 6 -1 2 6 -4 6 -12 9 -17 5 -5 -3 -17 4 -27 16
l-17 21 -24 -22 -24 -23 5 22 c4 15 2 22 -8 22 -8 0 -14 5 -14 10 0 6 5 10 10
10 6 0 15 10 19 23 9 22 9 22 16 -5 4 -16 13 -28 20 -28 7 0 18 -7 25 -15 7
-8 17 -12 22 -9 5 3 -1 17 -13 30 -12 13 -24 22 -27 19 -2 -2 -13 6 -22 18
-17 20 -19 21 -25 4 -7 -17 -8 -17 -22 3 -15 21 -39 29 -27 8 6 -10 3 -9 -8 0
-17 14 -14 42 4 42 5 0 7 -4 4 -8 -3 -5 1 -9 9 -9 11 0 12 4 4 14 -6 7 -17 13
-23 13 -6 0 -17 9 -24 21 -7 12 -15 19 -18 17 -2 -3 -25 15 -50 39 -26 24 -52
43 -57 43 -6 0 -3 -6 7 -13 16 -12 16 -13 -6 -13 -20 0 -24 4 -20 22 3 17 -10
33 -58 72 -38 30 -69 48 -79 45 -12 -4 -13 -2 -3 4 9 7 -4 23 -49 59 -34 27
-66 48 -70 47 -5 -2 -8 3 -6 10 1 6 -6 11 -15 11 -10 -1 -16 2 -13 6 3 5 1 11
-5 15 -14 9 -12 25 3 20 15 -6 159 123 151 136 -3 5 0 9 5 9 6 0 11 7 11 16 0
9 -5 12 -12 8 -7 -4 -8 -3 -4 4 10 16 39 15 31 0 -6 -11 50 46 104 107 81 90
175 231 165 247 -4 6 -3 8 4 4 21 -13 201 320 275 509 61 158 109 306 103 321
-3 8 -2 13 3 9 12 -7 25 51 15 67 -4 7 -3 9 1 5 5 -4 15 12 22 35 23 77 65
299 59 314 -3 8 -1 14 4 14 13 0 13 47 1 55 -5 3 -7 22 -4 42 4 26 3 34 -5 29
-8 -5 -11 1 -10 18 1 14 8 28 15 30 7 3 10 12 6 22 -4 12 -3 15 5 10 16 -10
15 -24 -3 -43 -10 -10 -12 -19 -6 -27 5 -6 11 -27 13 -46 2 -21 11 20 22 102
10 75 16 148 14 162 -3 14 -2 23 2 21 10 -6 30 307 34 545 6 324 -24 790 -51
790 -7 0 -13 8 -13 18 0 14 2 15 10 2 7 -11 9 -4 8 25 0 23 -3 30 -5 18 -6
-32 -20 -29 -21 5 -3 42 -7 59 -19 74 -13 15 -14 60 -1 52 12 -8 21 65 9 80
-6 7 -9 15 -6 18 5 5 -21 141 -51 268 -42 178 -163 532 -214 630 -27 50 -24
32 5 -34 14 -31 22 -56 19 -56 -4 0 -1 -7 6 -15 11 -13 10 -14 -4 -9 -9 3 -16
11 -16 18 0 6 -5 4 -11 -4 -9 -12 -10 -12 -5 3 6 20 -16 61 -27 50 -4 -3 -7 2
-7 13 -1 19 -1 19 -15 0 -20 -26 -19 -13 2 27 13 27 14 30 1 19 -13 -10 -15
-6 -14 30 1 27 -4 47 -14 55 -8 6 -15 15 -15 20 -1 4 -6 17 -12 28 -6 11 -13
29 -14 40 -2 10 -12 27 -21 37 -10 10 -18 24 -18 31 1 6 6 2 13 -11 7 -12 16
-19 20 -16 4 4 8 2 8 -4 4 -34 30 -92 40 -87 11 8 -3 43 -52 126 -28 48 -46
69 -59 69 -11 0 -20 7 -20 16 0 8 -4 13 -9 10 -5 -3 -12 1 -15 10 -8 21 -7 31
2 19 4 -5 18 -19 31 -30 l24 -20 -19 34 c-10 18 -28 37 -39 41 -11 5 -14 9 -7
9 18 1 5 21 -13 21 -9 0 -12 -6 -8 -17 5 -15 4 -16 -8 -5 -12 11 -11 15 3 26
10 7 15 16 12 19 -3 3 -16 -3 -27 -14 -14 -13 -23 -16 -26 -8 -2 6 1 14 7 18
7 4 4 11 -8 19 -16 9 -18 9 -14 -2 5 -13 -24 -31 -34 -21 -3 3 0 5 6 5 7 0 12
5 12 10 0 6 -7 10 -15 10 -20 0 -39 48 -25 65 10 12 4 25 -13 25 -5 0 -7 -7
-3 -15 3 -9 0 -15 -9 -15 -8 0 -15 5 -15 11 0 6 -7 18 -16 27 -16 15 -15 17
11 28 17 7 23 14 16 18 -6 4 -9 12 -5 17 3 6 12 5 22 -3 15 -12 16 -11 4 4 -8
9 -20 14 -27 12 -9 -4 -12 0 -9 13 3 12 -9 31 -38 58 -32 30 -30 17 2 -15 3
-3 6 -11 8 -18 1 -9 -5 -8 -23 4 -15 10 -25 12 -25 5 0 -6 -5 -11 -11 -11 -5
0 -9 10 -7 22 3 21 0 22 -47 19 -40 -2 -48 0 -37 10 18 19 15 32 -6 27 -15 -4
-18 2 -17 48 0 46 -2 51 -17 43 -23 -13 -55 -11 -64 3 -5 7 -3 8 6 3 9 -5 11
-4 6 4 -5 7 -19 16 -32 21 -13 5 -25 16 -25 25 -1 8 -2 22 -3 32 0 9 -14 30
-31 47 -23 24 -33 29 -45 21 -11 -8 -11 -4 2 17 16 25 16 27 0 40 -15 11 -16
11 -6 -2 8 -12 6 -19 -9 -34 -17 -16 -19 -16 -14 -3 3 9 2 19 -3 22 -6 4 -10
0 -10 -8 0 -9 -11 -14 -33 -13 -24 1 -33 6 -33 18 0 9 3 15 7 12 4 -2 14 -1
23 2 12 5 13 9 3 19 -7 7 -16 10 -21 7 -5 -3 -6 0 -2 7 5 8 0 14 -13 18 -12 3
-21 9 -21 14 0 5 -6 8 -12 7 -7 -2 -12 3 -10 10 1 8 -2 11 -9 6 -7 -4 -18 1
-25 11 -7 10 -20 15 -28 12 -9 -4 -18 -1 -22 5 -4 7 -3 8 4 4 7 -4 12 -1 12 9
0 15 1 15 16 1 8 -9 20 -14 25 -11 5 4 6 -2 3 -12 -4 -13 -3 -14 4 -5 7 11 12
11 25 -2 8 -9 19 -16 23 -16 3 0 30 -17 58 -37 28 -20 45 -29 38 -20 -18 22
-214 150 -229 150 -7 0 -13 3 -13 7 0 3 -13 14 -30 23 -28 17 -29 17 -23 1 5
-14 3 -16 -11 -11 -13 5 -19 1 -23 -13 -3 -11 -14 -20 -24 -20 -23 0 -24 7 -4
27 21 20 8 38 -14 19 -22 -20 -41 -20 -41 0 0 11 6 14 23 9 l22 -6 -22 17
c-13 9 -23 24 -22 33 0 10 2 12 6 3 2 -6 9 -10 14 -6 5 3 9 0 9 -6 0 -6 5 -8
10 -5 6 3 10 1 10 -6 0 -7 3 -9 6 -6 4 3 15 2 25 -4 11 -5 19 -7 19 -4 0 5
-195 105 -205 105 -4 0 -3 -5 0 -10 3 -6 -1 -13 -9 -16 -9 -3 -14 -9 -11 -14
6 -9 -54 -6 -77 4 -10 5 -15 12 -12 17 3 5 -1 9 -8 9 -7 0 -19 9 -26 21 -8 12
-19 18 -28 15 -8 -3 -14 -2 -14 2 0 5 12 13 28 18 25 9 22 12 -62 42 -49 18
-91 30 -94 27 -3 -3 0 -5 6 -5 7 0 12 -9 12 -20 0 -13 -6 -20 -17 -19 -11 0
-13 3 -5 6 6 2 12 9 12 14 0 4 -6 6 -14 3 -8 -3 -17 0 -22 7 -4 8 -3 10 4 5 7
-4 12 -1 12 7 0 17 -71 40 -96 30 -10 -4 -15 -2 -11 4 4 6 -19 17 -53 26 -77
22 -85 21 -31 -3 23 -11 47 -18 51 -15 12 7 33 -23 25 -36 -4 -6 -1 -15 6 -20
9 -6 10 -9 2 -9 -6 0 -20 11 -31 24 -19 24 -19 24 -47 6 -18 -12 -34 -16 -44
-11 -19 10 -81 2 -81 -10 0 -5 -7 -9 -16 -9 -11 0 -14 5 -10 16 5 13 1 15 -18
12 -20 -4 -26 0 -31 19 -7 29 1 44 19 37 8 -3 16 -1 20 4 6 10 -24 9 -42 -2
-7 -4 -25 -5 -38 -2 -20 5 -23 10 -15 20 9 11 8 14 -5 12 -30 -2 -27 22 3 26
20 3 9 7 -37 16 -103 19 -166 26 -157 17 7 -8 20 -11 65 -17 6 -1 12 -6 12
-11 0 -5 9 -7 21 -4 13 3 19 1 16 -6 -2 -7 -13 -13 -25 -15 -25 -4 -30 -22 -7
-22 8 0 15 -4 15 -10 0 -5 -7 -10 -15 -10 -8 0 -15 4 -15 9 0 17 -30 20 -57 5
-23 -13 -24 -15 -5 -11 19 4 22 1 22 -24 0 -23 -4 -29 -22 -30 -22 0 -22 -1
-3 -8 20 -8 18 -9 -95 -24 -27 -4 -62 12 -54 25 3 4 -2 5 -10 2 -22 -8 -56 27
-56 58 0 18 -6 29 -19 33 -11 3 -23 15 -26 26 -4 10 -12 19 -20 19 -7 0 -15 7
-19 15 -3 8 -10 15 -15 15 -6 0 -8 -7 -5 -15 4 -8 1 -15 -5 -15 -6 0 -11 8
-12 18 0 10 -3 12 -6 4 -2 -6 -9 -9 -15 -6 -6 4 -14 1 -18 -5 -5 -9 -22 -9
-71 1 -35 7 -110 13 -167 14 -56 1 -105 4 -109 7 -3 3 -11 1 -19 -6 -36 -33
-46 -37 -78 -37 -30 0 -34 3 -29 18 6 15 5 15 -10 4 -14 -12 -21 -11 -48 2
-41 21 -91 22 -83 2 4 -11 0 -13 -15 -9 -12 3 -21 9 -21 13 0 5 -8 10 -17 12
-10 3 5 5 32 6 28 2 75 6 105 11 53 8 53 8 -30 8 -47 0 -101 -2 -120 -4z
m-100 -36 c0 -8 -17 -12 -50 -11 -27 0 -50 -3 -50 -8 0 -4 -22 -8 -50 -8 -30
0 -50 4 -50 11 0 6 7 9 15 5 8 -3 15 -1 15 5 0 7 12 9 34 5 19 -4 37 -3 40 2
9 15 96 13 96 -1z m90 4 c0 -5 -9 -11 -19 -14 -14 -3 -18 -1 -14 9 6 15 33 19
33 5z m550 -11 c0 -5 -4 -10 -10 -10 -5 0 -10 5 -10 10 0 6 5 10 10 10 6 0 10
-4 10 -10z m720 -106 c0 -3 -12 -4 -27 -2 -17 2 -28 9 -28 18 0 8 -11 18 -25
21 -25 7 -25 7 -3 14 13 4 20 12 17 19 -4 6 10 -6 30 -27 20 -21 36 -40 36
-43z m-76 -16 c-9 -14 -24 2 -24 25 1 21 1 21 15 3 8 -10 12 -23 9 -28z m429
-12 c4 -10 1 -13 -8 -9 -8 3 -12 9 -9 14 7 12 11 11 17 -5z m47 -23 c0 -6 14
-23 31 -37 17 -14 26 -27 20 -27 -58 -7 -66 -4 -71 26 -4 23 -10 29 -25 27
-18 -2 -18 -1 -3 8 10 6 15 17 11 26 -5 14 -3 14 16 3 11 -8 21 -19 21 -26z
m-500 17 c0 -5 -4 -10 -10 -10 -5 0 -10 5 -10 10 0 6 5 10 10 10 6 0 10 -4 10
-10z m375 -20 c3 -5 1 -10 -4 -10 -6 0 -11 5 -11 10 0 6 2 10 4 10 3 0 8 -4
11 -10z m235 -19 c0 -6 21 -13 47 -17 36 -5 43 -9 28 -14 -24 -9 -41 -8 -38 2
2 4 -3 5 -11 2 -8 -3 -17 -1 -21 5 -3 6 -15 11 -26 11 -10 0 -19 5 -19 10 0 6
9 10 20 10 11 0 20 -4 20 -9z m-2679 -14 c-1 -12 -15 -9 -19 4 -3 6 1 10 8 8
6 -3 11 -8 11 -12z m1059 -2 c0 -2 -6 -5 -13 -8 -8 -3 -14 1 -14 8 0 7 6 11
14 8 7 -3 13 -6 13 -8z m1566 -48 c4 -4 -2 -7 -14 -7 -12 0 -22 4 -22 9 0 10
26 9 36 -2z m77 6 c-7 -2 -19 -2 -25 0 -7 3 -2 5 12 5 14 0 19 -2 13 -5z
m-2645 -35 c-2 -5 -8 -9 -13 -9 -6 0 -15 -10 -22 -22 -15 -27 -17 -16 -2 16
10 22 43 35 37 15z m2582 -8 c8 -5 11 -10 5 -10 -5 0 -17 5 -25 10 -8 5 -10
10 -5 10 6 0 17 -5 25 -10z m140 0 c0 -5 -2 -10 -4 -10 -3 0 -8 5 -11 10 -3 6
-1 10 4 10 6 0 11 -4 11 -10z m192 -15 c3 3 8 -3 11 -15 5 -21 -7 -28 -18 -10
-4 6 -11 8 -16 5 -16 -11 -30 5 -16 20 7 8 16 10 23 4 6 -5 13 -6 16 -4z
m-352 -5 c0 -5 -9 -10 -21 -10 -11 0 -17 5 -14 10 3 6 13 10 21 10 8 0 14 -4
14 -10z m70 -10 c0 -16 -7 -20 -31 -20 -17 0 -28 4 -24 10 3 6 13 10 21 10 8
0 14 5 14 10 0 6 5 10 10 10 6 0 10 -9 10 -20z m-3066 -5 c-7 -17 -20 -20 -29
-6 -3 5 3 12 12 14 10 3 19 5 20 6 1 0 0 -6 -3 -14z m3166 0 c0 -8 -9 -15 -20
-15 -22 0 -27 15 -7 23 21 9 27 7 27 -8z m-1940 -5 c0 -5 -4 -10 -10 -10 -5 0
-10 5 -10 10 0 6 5 10 10 10 6 0 10 -4 10 -10z m-1264 -12 c4 -7 3 -8 -4 -4
-7 4 -12 2 -12 -4 0 -6 -5 -8 -11 -5 -6 4 -18 -3 -26 -15 -9 -13 -22 -20 -34
-17 -10 3 -20 -1 -23 -9 -3 -8 -12 -14 -20 -14 -8 0 -16 -5 -18 -12 -3 -9 -6
-9 -12 0 -4 7 3 14 19 18 13 3 22 10 19 15 -5 8 3 11 22 8 4 0 10 4 13 10 5 7
62 37 78 41 1 0 5 -5 9 -12z m2988 6 c23 -9 20 -24 -4 -24 -11 0 -20 7 -20 15
0 17 2 18 24 9z m-2864 -14 c0 -5 -4 -10 -10 -10 -5 0 -10 5 -10 10 0 6 5 10
10 10 6 0 10 -4 10 -10z m1197 -42 c-3 -8 -6 -5 -6 6 -1 11 2 17 5 13 3 -3 4
-12 1 -19z m-1347 -10 c0 -19 -2 -20 -10 -8 -5 8 -10 10 -10 5 0 -6 -10 -11
-22 -12 -19 -2 -18 0 8 17 16 10 30 19 32 19 1 1 2 -9 2 -21z m170 12 c0 -5
-4 -10 -10 -10 -5 0 -10 5 -10 10 0 6 5 10 10 10 6 0 10 -4 10 -10z m-80 -20
c0 -5 -7 -10 -16 -10 -8 0 -12 5 -9 10 3 6 10 10 16 10 5 0 9 -4 9 -10z m3529
-17 c1 4 11 1 24 -8 13 -8 27 -12 32 -8 4 5 5 3 1 -4 -8 -14 -30 -11 -68 9
-21 12 -25 17 -15 27 9 9 13 8 19 -6 3 -10 7 -15 7 -10z m-2162 2 c0 -8 -4
-12 -9 -9 -5 3 -6 10 -3 15 9 13 12 11 12 -6z m-1635 -36 c-9 -4 -19 -6 -22
-4 -6 2 -40 -33 -40 -42 0 -4 -7 -8 -15 -8 -20 0 -48 -52 -32 -59 7 -3 3 -5
-7 -3 -11 1 -19 7 -19 12 1 6 -3 15 -9 22 -7 8 3 19 34 39 24 14 54 33 68 42
14 9 28 15 33 14 4 -1 7 4 7 11 0 8 3 7 10 -3 7 -11 5 -17 -8 -21z m3135 25
c-3 -3 -12 -4 -19 -1 -8 3 -5 6 6 6 11 1 17 -2 13 -5z m-2787 -14 c0 -5 -4
-10 -10 -10 -5 0 -10 5 -10 10 0 6 5 10 10 10 6 0 10 -4 10 -10z m40 0 c0 -5
-4 -10 -10 -10 -5 0 -10 5 -10 10 0 6 5 10 10 10 6 0 10 -4 10 -10z m120 0 c0
-5 -4 -10 -10 -10 -5 0 -10 5 -10 10 0 6 5 10 10 10 6 0 10 -4 10 -10z m100 0
c0 -5 -4 -10 -10 -10 -5 0 -10 5 -10 10 0 6 5 10 10 10 6 0 10 -4 10 -10z
m2580 0 c0 -5 -4 -10 -10 -10 -5 0 -10 5 -10 10 0 6 5 10 10 10 6 0 10 -4 10
-10z m484 -5 c3 -8 12 -12 21 -9 22 9 19 -6 -7 -27 -27 -24 -26 -24 -20 8 4
21 2 25 -11 20 -11 -4 -14 -2 -10 9 7 18 19 18 27 -1z m-3404 -15 c0 -5 -2
-10 -4 -10 -3 0 -8 5 -11 10 -3 6 -1 10 4 10 6 0 11 -4 11 -10z m1240 0 c0 -5
-9 -10 -20 -10 -11 0 -20 5 -20 10 0 6 9 10 20 10 11 0 20 -4 20 -10z m118
-15 c-3 -3 -9 2 -12 12 -6 14 -5 15 5 6 7 -7 10 -15 7 -18z m168 1 c1 -7 -4
-13 -12 -13 -9 0 -11 4 -4 12 5 7 8 15 5 18 -3 4 -2 5 2 2 4 -3 8 -11 9 -19z
m2031 7 c5 3 10 1 10 -6 0 -7 -11 -13 -24 -13 -13 -1 -23 4 -23 10 0 19 13 28
21 15 4 -6 11 -9 16 -6z m-3841 -43 c0 -22 -3 -40 -7 -40 -11 0 -16 69 -4 74
5 2 10 5 10 5 1 1 1 -17 1 -39z m344 30 c0 -5 -4 -10 -10 -10 -5 0 -10 5 -10
10 0 6 5 10 10 10 6 0 10 -4 10 -10z m40 1 c0 -6 -4 -13 -10 -16 -5 -3 -10 1
-10 9 0 9 5 16 10 16 6 0 10 -4 10 -9z m760 -1 c0 -5 -4 -10 -10 -10 -5 0 -10
5 -10 10 0 6 5 10 10 10 6 0 10 -4 10 -10z m100 1 c0 -5 -7 -11 -14 -14 -10
-4 -13 -1 -9 9 6 15 23 19 23 5z m-973 -33 c-3 -8 -6 -5 -6 6 -1 11 2 17 5 13
3 -3 4 -12 1 -19z m3400 -20 c-3 -8 -6 -5 -6 6 -1 11 2 17 5 13 3 -3 4 -12 1
-19z m33 2 c0 -5 -4 -10 -10 -10 -5 0 -10 5 -10 10 0 6 5 10 10 10 6 0 10 -4
10 -10z m-3728 -60 c4 0 8 -9 8 -20 0 -11 -4 -20 -8 -20 -5 0 -19 9 -32 20
-21 18 -20 25 3 21 4 -1 5 11 2 26 l-5 28 12 -27 c7 -16 15 -28 20 -28z m1278
35 c0 -8 -4 -15 -10 -15 -5 0 -10 7 -10 15 0 8 5 15 10 15 6 0 10 -7 10 -15z
m2729 -14 c-8 -2 -18 -9 -22 -15 -6 -7 -7 -4 -3 7 3 10 0 17 -7 17 -8 0 -7 4
3 10 9 6 19 5 28 -3 12 -9 12 -12 1 -16z m-3599 -1 c0 -5 -8 -10 -17 -10 -15
0 -16 2 -3 10 19 12 20 12 20 0z m-490 -25 c0 -8 7 -15 15 -15 8 0 15 -4 15
-8 0 -5 -18 -8 -41 -8 -24 0 -44 -6 -51 -14 -8 -12 -8 -10 -3 5 4 11 10 28 12
38 7 21 53 24 53 2z m170 -5 c0 -5 -4 -10 -10 -10 -5 0 -10 5 -10 10 0 6 5 10
10 10 6 0 10 -4 10 -10z m140 -4 c0 -3 -4 -8 -10 -11 -5 -3 -10 -1 -10 4 0 6
5 11 10 11 6 0 10 -2 10 -4z m3776 -23 c-3 -3 -13 -2 -23 2 -17 7 -17 8 2 15
19 7 34 -5 21 -17z m-3819 -3 c-1 -11 -4 -20 -8 -20 -10 0 -19 27 -12 34 12
12 22 5 20 -14z m1527 5 c-4 -8 -8 -15 -10 -15 -2 0 -4 7 -4 15 0 8 4 15 10
15 5 0 7 -7 4 -15z m2266 -19 c0 -2 -7 -7 -16 -10 -8 -3 -12 -2 -9 4 6 10 25
14 25 6z m-1396 -14 c2 -4 -4 -9 -15 -9 -10 -1 -19 2 -19 8 0 11 27 12 34 1z
m1426 -2 c0 -5 -4 -10 -10 -10 -5 0 -10 5 -10 10 0 6 5 10 10 10 6 0 10 -4 10
-10z m-2270 -9 c0 -6 -4 -13 -10 -16 -5 -3 -10 1 -10 9 0 9 5 16 10 16 6 0 10
-4 10 -9z m-177 -8 c-7 -2 -19 -2 -25 0 -7 3 -2 5 12 5 14 0 19 -2 13 -5z
m-1867 -18 c-11 -8 -16 -15 -10 -15 5 0 2 -4 -6 -9 -8 -6 -18 -7 -23 -4 -12 7
23 43 42 43 13 -1 13 -3 -3 -15z m1454 -5 c0 -5 -4 -10 -10 -10 -5 0 -10 5
-10 10 0 6 5 10 10 10 6 0 10 -4 10 -10z m2900 0 c0 -5 -9 -10 -20 -10 -11 0
-20 5 -20 10 0 6 9 10 20 10 11 0 20 -4 20 -10z m-4317 -14 c4 -10 0 -12 -14
-9 -22 6 -26 23 -5 23 8 0 16 -6 19 -14z m577 0 c0 -3 -4 -8 -10 -11 -5 -3
-10 -1 -10 4 0 6 5 11 10 11 6 0 10 -2 10 -4z m-530 -31 c0 -8 4 -15 10 -15 5
0 6 7 3 17 -4 11 -3 14 6 9 7 -5 10 -18 7 -31 -3 -13 -2 -27 4 -30 5 -3 10
-14 9 -23 0 -11 -3 -12 -6 -4 -2 6 -14 12 -26 13 -20 0 -20 1 -3 8 18 7 17 9
-8 34 -30 30 -32 37 -11 37 8 0 15 -7 15 -15z m-30 -49 c0 -9 -4 -16 -10 -16
-5 0 -10 6 -10 14 0 8 -3 23 -7 33 -6 17 -6 17 10 1 9 -9 17 -24 17 -32z m683
29 c4 -8 2 -17 -3 -20 -6 -4 -10 3 -10 14 0 25 6 27 13 6z m3787 -15 c0 -5 -6
-10 -14 -10 -8 0 -16 -6 -19 -12 -2 -7 -8 -10 -12 -6 -9 8 16 37 33 38 6 0 12
-4 12 -10z m-3890 -20 c0 -5 -4 -10 -10 -10 -5 0 -10 5 -10 10 0 6 5 10 10 10
6 0 10 -4 10 -10z m1140 -6 c0 -8 -4 -12 -10 -9 -5 3 -10 10 -10 16 0 5 5 9
10 9 6 0 10 -7 10 -16z m-1781 -16 c0 -16 -2 -18 -6 -8 -3 8 -11 18 -17 22 -7
5 -4 8 7 8 11 0 17 -7 16 -22z m1306 2 c-3 -5 -12 -10 -20 -10 -8 0 -17 5 -20
10 -4 6 5 10 20 10 15 0 24 -4 20 -10z m315 0 c0 -5 -4 -10 -10 -10 -5 0 -10
5 -10 10 0 6 5 10 10 10 6 0 10 -4 10 -10z m80 0 c0 -5 -4 -10 -10 -10 -5 0
-10 5 -10 10 0 6 5 10 10 10 6 0 10 -4 10 -10z m2860 0 c0 -5 -6 -10 -14 -10
-8 0 -18 5 -21 10 -3 6 3 10 14 10 12 0 21 -4 21 -10z m-2693 -6 c-3 -3 -12
-4 -19 -1 -8 3 -5 6 6 6 11 1 17 -2 13 -5z m-1780 -59 c8 -9 12 -22 9 -31 -5
-14 -8 -14 -21 0 -15 14 -21 46 -9 46 3 0 12 -7 21 -15z m2053 -25 c0 -5 -8
-10 -17 -10 -15 0 -16 2 -3 10 19 12 20 12 20 0z m598 -8 c-10 -2 -18 -8 -18
-13 0 -5 -7 -9 -15 -9 -19 0 -8 28 13 33 10 2 22 1 27 -2 6 -3 2 -7 -7 -9z
m-841 -7 c23 4 24 4 8 -4 -31 -15 -62 -13 -62 4 0 11 4 12 13 4 7 -5 25 -7 41
-4z m196 8 c-7 -2 -21 -2 -30 0 -10 3 -4 5 12 5 17 0 24 -2 18 -5z m697 -3
c12 -7 10 -9 -8 -7 -12 0 -22 5 -22 9 0 11 12 10 30 -2z m1845 0 c3 -5 1 -10
-4 -10 -6 0 -11 5 -11 10 0 6 2 10 4 10 3 0 8 -4 11 -10z m-2831 -15 c-4 -8
-13 -15 -22 -15 -13 0 -12 3 4 15 24 18 25 18 18 0z m841 5 c13 -6 15 -9 5 -9
-8 0 -22 4 -30 9 -18 12 -2 12 25 0z m-1385 -10 c0 -5 -4 -10 -10 -10 -5 0
-10 5 -10 10 0 6 5 10 10 10 6 0 10 -4 10 -10z m3480 -5 c-7 -9 -15 -13 -19
-10 -3 3 1 10 9 15 21 14 24 12 10 -5z m-120 -15 c0 -5 -4 -10 -10 -10 -5 0
-10 5 -10 10 0 6 5 10 10 10 6 0 10 -4 10 -10z m-3460 -20 c0 -5 -15 -10 -32
-10 -25 0 -29 3 -18 10 20 13 50 13 50 0z m132 -2 c-10 -10 -8 -15 9 -24 14
-7 18 -14 10 -18 -6 -4 -11 -2 -11 3 0 6 -4 11 -10 11 -5 0 -10 -7 -10 -16 0
-11 -5 -14 -17 -10 -9 4 -19 2 -23 -4 -4 -7 -20 -10 -36 -7 -27 4 -28 5 -6 12
12 4 22 11 22 16 0 5 9 9 20 9 11 0 20 5 20 10 0 6 -9 10 -20 10 -11 0 -20 5
-20 10 0 6 19 10 42 10 33 0 39 -3 30 -12z m3448 -10 c0 7 5 12 10 12 25 0 7
-26 -20 -28 -25 -2 -30 1 -30 19 0 21 1 22 20 4 11 -10 20 -13 20 -7z m96 -3
c-3 -10 -11 -13 -18 -9 -7 4 -5 -2 5 -13 21 -24 22 -33 2 -33 -8 0 -14 3 -13
8 0 4 -2 15 -7 25 -5 12 -2 22 11 32 22 16 29 12 20 -10z m-3696 -25 c0 -5 -4
-10 -10 -10 -5 0 -10 5 -10 10 0 6 5 10 10 10 6 0 10 -4 10 -10z m40 6 c0 -3
-4 -8 -10 -11 -5 -3 -10 -1 -10 4 0 6 5 11 10 11 6 0 10 -2 10 -4z m1914 -22
c3 -8 2 -12 -4 -9 -6 3 -10 10 -10 16 0 14 7 11 14 -7z m-2634 -35 c0 -6 -4
-7 -10 -4 -5 3 -10 11 -10 16 0 6 5 7 10 4 6 -3 10 -11 10 -16z m810 11 c0 -5
-8 -10 -17 -10 -15 0 -16 2 -3 10 19 12 20 12 20 0z m2010 -16 c0 -8 -4 -14
-10 -14 -5 0 -10 9 -10 21 0 11 5 17 10 14 6 -3 10 -13 10 -21z m-2120 -4 c0
-5 -9 -10 -20 -10 -11 0 -20 5 -20 10 0 6 9 10 20 10 11 0 20 -4 20 -10z m64
-15 c3 -8 1 -15 -4 -15 -6 0 -10 7 -10 15 0 8 2 15 4 15 2 0 6 -7 10 -15z m31
-3 c-3 -3 -11 0 -18 7 -9 10 -8 11 6 5 10 -3 15 -9 12 -12z m2105 8 c0 -5 -4
-10 -10 -10 -5 0 -10 5 -10 10 0 6 5 10 10 10 6 0 10 -4 10 -10z m1460 -11 c0
-5 -4 -9 -10 -9 -5 0 -10 7 -10 16 0 8 5 12 10 9 6 -3 10 -10 10 -16z m-5005
1 c-4 -6 5 -10 19 -10 14 0 26 -4 26 -10 0 -5 -13 -10 -30 -10 -23 0 -30 4
-30 20 0 11 5 20 11 20 5 0 7 -4 4 -10z m3475 -10 c0 -5 -5 -10 -11 -10 -5 0
-7 5 -4 10 3 6 8 10 11 10 2 0 4 -4 4 -10z m-3550 -10 c0 -5 -4 -10 -10 -10
-5 0 -10 5 -10 10 0 6 5 10 10 10 6 0 10 -4 10 -10z m920 -20 c0 -5 -4 -10
-10 -10 -5 0 -10 5 -10 10 0 6 5 10 10 10 6 0 10 -4 10 -10z m140 0 c0 -5 -4
-10 -10 -10 -5 0 -10 5 -10 10 0 6 5 10 10 10 6 0 10 -4 10 -10z m2587 -16
c-3 -3 -12 -4 -19 -1 -8 3 -5 6 6 6 11 1 17 -2 13 -5z m422 -15 c-17 -17 -19
-23 -8 -30 7 -4 11 -11 8 -14 -4 -3 -11 1 -17 8 -9 10 -8 19 4 35 8 12 19 22
25 22 5 0 -1 -10 -12 -21z m-3252 -11 c-3 -8 -6 -5 -6 6 -1 11 2 17 5 13 3 -3
4 -12 1 -19z m2843 2 c0 -5 -5 -10 -11 -10 -5 0 -7 5 -4 10 3 6 8 10 11 10 2
0 4 -4 4 -10z m-3853 -58 c-17 -19 -14 -57 4 -46 5 3 9 -2 9 -10 0 -9 5 -16
10 -16 6 0 10 -4 10 -10 0 -5 -9 -10 -20 -10 -14 0 -20 7 -20 21 0 17 -5 19
-29 16 -17 -3 -35 -8 -42 -13 -14 -8 -11 -3 34 69 27 42 32 46 46 33 13 -14
13 -17 -2 -34z m3888 28 c3 -6 -1 -7 -9 -4 -18 7 -21 14 -7 14 6 0 13 -4 16
-10z m-2775 -10 c0 -5 -4 -10 -10 -10 -5 0 -10 5 -10 10 0 6 5 10 10 10 6 0
10 -4 10 -10z m110 4 c0 -8 -19 -13 -24 -6 -3 5 1 9 9 9 8 0 15 -2 15 -3z
m-240 -59 c0 -8 -4 -15 -10 -15 -5 0 -10 7 -10 15 0 8 5 15 10 15 6 0 10 -7
10 -15z m-30 -35 c0 -11 -4 -20 -10 -20 -5 0 -10 9 -10 20 0 11 5 20 10 20 6
0 10 -9 10 -20z m-997 -25 c-3 -8 -10 -15 -15 -15 -7 0 -6 5 1 13 6 8 7 18 3
22 -4 5 -2 5 5 1 7 -4 10 -13 6 -21z m1392 -4 c3 -5 2 -12 -3 -15 -5 -3 -9 1
-9 9 0 17 3 19 12 6z m-1365 -11 c0 -5 -2 -10 -4 -10 -3 0 -8 5 -11 10 -3 6
-1 10 4 10 6 0 11 -4 11 -10z m5533 -5 c4 -8 2 -17 -3 -20 -6 -4 -10 3 -10 14
0 25 6 27 13 6z m43 -22 c-4 -4 -11 -1 -16 7 -16 25 -11 35 7 17 9 -9 13 -20
9 -24z m-5606 -3 c0 -5 -4 -10 -10 -10 -5 0 -10 5 -10 10 0 6 5 10 10 10 6 0
10 -4 10 -10z m1324 -18 c3 -5 -1 -9 -9 -9 -8 0 -15 4 -15 9 0 4 4 8 9 8 6 0
12 -4 15 -8z m-1364 -42 c0 -5 -7 -10 -15 -10 -8 0 -15 5 -15 10 0 6 7 10 15
10 8 0 15 -4 15 -10z m5690 -92 c0 -18 -2 -20 -9 -8 -6 8 -7 18 -5 22 9 14 14
9 14 -14z m-4440 -12 c0 -3 -4 -8 -10 -11 -5 -3 -10 -1 -10 4 0 6 5 11 10 11
6 0 10 -2 10 -4z m4460 -56 c0 -5 -2 -10 -4 -10 -3 0 -8 5 -11 10 -3 6 -1 10
4 10 6 0 11 -4 11 -10z m-4921 -32 c0 -13 -3 -17 -6 -10 -4 10 -9 9 -19 -5
-13 -16 -13 -15 -3 10 15 33 29 35 28 5z m22 -98 c5 0 9 -9 9 -20 0 -11 -4
-20 -10 -20 -5 0 -10 9 -10 19 0 11 -5 21 -11 23 -7 2 -8 14 -2 33 l8 30 3
-32 c2 -18 7 -33 13 -33z m49 20 c0 -11 -4 -20 -10 -20 -5 0 -10 9 -10 20 0
11 5 20 10 20 6 0 10 -9 10 -20z m-450 -14 c0 -2 -7 -6 -15 -10 -8 -3 -15 -1
-15 4 0 6 7 10 15 10 8 0 15 -2 15 -4z m5375 -27 c4 -11 4 -23 0 -27 -7 -7
-25 17 -25 36 0 20 18 14 25 -9z m-1260 -7 c-3 -3 -11 0 -18 7 -9 10 -8 11 6
5 10 -3 15 -9 12 -12z m-3802 -13 c4 -16 3 -18 -9 -8 -16 13 -19 29 -5 29 5 0
11 -9 14 -21z m-916 -4 c0 -8 -4 -12 -9 -9 -5 3 -6 10 -3 15 9 13 12 11 12 -6z
m93 -49 c0 -14 -4 -26 -10 -26 -5 0 -10 14 -10 30 0 17 -5 30 -11 30 -5 0 -7
5 -4 10 10 16 35 -15 35 -44z m4683 40 c4 -10 1 -13 -9 -9 -7 3 -14 9 -14 14
0 14 17 10 23 -5z m37 -6 c0 -11 5 -20 10 -20 6 0 10 5 10 10 0 6 5 10 12 10
9 0 9 -3 0 -12 -7 -7 -12 -20 -12 -30 0 -18 -1 -18 -26 -1 -15 9 -22 19 -16
21 5 1 8 12 5 22 -3 11 0 20 6 20 6 0 11 -9 11 -20z m1225 -10 c-3 -5 -1 -10
4 -10 6 0 11 -8 10 -17 0 -12 -2 -13 -6 -5 -4 10 -8 9 -17 -3 -10 -14 -12 -12
-14 14 -2 23 2 31 13 31 9 0 13 -4 10 -10z m-6031 -18 c3 -5 -1 -9 -9 -9 -8 0
-12 4 -9 9 3 4 7 8 9 8 2 0 6 -4 9 -8z m-14 -44 c0 -6 -7 -5 -15 2 -8 7 -15
17 -15 22 0 6 7 5 15 -2 8 -7 15 -17 15 -22z m1221 -31 c-13 -13 -26 -3 -16
12 3 6 11 8 17 5 6 -4 6 -10 -1 -17z m-1161 -31 c0 -3 -9 -6 -20 -6 -19 0 -27
20 -14 33 6 6 34 -16 34 -27z m-80 10 c0 -3 -4 -8 -10 -11 -5 -3 -10 -1 -10 4
0 6 5 11 10 11 6 0 10 -2 10 -4z m355 -36 c3 -5 -1 -10 -9 -10 -9 0 -16 5 -16
10 0 6 4 10 9 10 6 0 13 -4 16 -10z m-429 -20 c0 -11 -4 -20 -8 -20 -4 0 -8 9
-8 20 0 11 4 20 8 20 4 0 8 -9 8 -20z m330 13 c-10 -11 -37 -12 -30 -2 3 5 12
9 21 9 9 0 13 -3 9 -7z m944 -12 c-15 -30 -30 -35 -17 -6 7 14 16 25 20 25 4
0 3 -9 -3 -19z m4938 -38 c-8 -10 -6 -13 6 -13 10 0 14 -5 11 -10 -4 -6 -10
-8 -15 -5 -5 3 -10 -3 -13 -12 -2 -10 -4 5 -3 33 1 41 3 48 13 35 8 -11 8 -20
1 -28z m-6178 -29 c0 -16 -9 -18 -30 -4 -13 8 -12 10 3 10 11 0 15 4 11 12 -4
7 -3 8 4 4 7 -4 12 -14 12 -22z m1197 -16 c-3 -8 -6 -5 -6 6 -1 11 2 17 5 13
3 -3 4 -12 1 -19z m-1237 -10 c0 -13 -23 -5 -28 10 -2 7 2 10 12 6 9 -3 16
-11 16 -16z m6251 -8 c2 -33 4 -38 12 -46 11 -11 9 -34 -4 -34 -5 0 -8 3 -6 8
3 4 -3 24 -13 44 -10 20 -15 39 -12 42 11 12 22 5 23 -14z m-6218 -5 c-3 -9
-8 -14 -10 -11 -3 3 -2 9 2 15 9 16 15 13 8 -4z m7 -56 c0 -17 -6 -37 -14 -45
-19 -18 -32 -18 -17 0 7 8 13 28 13 45 1 40 18 40 18 0z m615 22 c3 -5 1 -12
-5 -16 -5 -3 -10 1 -10 9 0 18 6 21 15 7z m4475 -54 c0 -4 -6 -2 -14 5 -8 7
-12 17 -9 22 5 8 23 -12 23 -27z m-4013 -41 c0 -8 -6 -12 -15 -9 -11 5 -11 7
0 14 7 5 13 9 14 9 0 0 1 -6 1 -14z m-1177 0 c0 -11 -19 -15 -25 -6 -3 5 1 10
9 10 9 0 16 -2 16 -4z m5157 -29 c0 -7 -9 -14 -19 -14 -23 -2 -24 14 0 20 9 3
17 5 18 6 0 0 1 -5 1 -12z m-4337 -11 c0 -3 -4 -8 -10 -11 -5 -3 -10 -1 -10 4
0 6 5 11 10 11 6 0 10 -2 10 -4z m-837 -29 c13 -20 13 -24 -1 -37 -14 -13 -15
-12 -9 2 3 9 -1 22 -8 28 -8 7 -12 16 -9 21 8 13 10 12 27 -14z m357 13 c0 -5
-4 -10 -10 -10 -5 0 -10 5 -10 10 0 6 5 10 10 10 6 0 10 -4 10 -10z m320 6 c0
-3 -4 -8 -10 -11 -5 -3 -10 -1 -10 4 0 6 5 11 10 11 6 0 10 -2 10 -4z m478 -9
c6 -18 0 -24 -27 -25 -16 0 -32 6 -35 13 -3 9 0 12 10 8 7 -3 14 -1 14 4 0 11
34 11 38 0z m-537 -20 c-10 -9 -11 -8 -5 6 3 10 9 15 12 12 3 -3 0 -11 -7 -18z
m576 -17 c-4 -29 -2 -38 6 -33 7 3 8 2 4 -3 -12 -12 -30 -12 -39 1 -4 5 -8 0
-8 -12 0 -13 -4 -23 -10 -23 -5 0 -10 6 -10 14 0 16 24 39 32 30 3 -2 8 2 11
10 4 9 2 18 -3 21 -11 7 -2 35 12 35 7 0 9 -16 5 -40z m3967 25 c-4 -8 -8 -15
-10 -15 -2 0 -4 7 -4 15 0 8 4 15 10 15 5 0 7 -7 4 -15z m-3924 -7 c0 -4 -6
-8 -12 -8 -9 0 -10 -2 -2 -8 7 -4 8 -15 3 -27 l-8 -20 -1 20 c-1 11 -3 27 -5
36 -1 9 4 16 11 16 8 0 14 -4 14 -9z m-565 -7 c3 -5 2 -12 -3 -15 -5 -3 -9 1
-9 9 0 17 3 19 12 6z m-702 -16 c-3 -9 -8 -14 -10 -11 -3 3 -2 9 2 15 9 16 15
13 8 -4z m107 5 c0 -5 -4 -10 -10 -10 -5 0 -10 5 -10 10 0 6 5 10 10 10 6 0
10 -4 10 -10z m40 0 c0 -5 -5 -10 -11 -10 -5 0 -7 5 -4 10 3 6 8 10 11 10 2 0
4 -4 4 -10z m77 -116 c-3 -3 -12 -4 -19 -1 -8 3 -5 6 6 6 11 1 17 -2 13 -5z
m94 -31 c-10 -17 -10 -16 -11 3 0 23 13 41 18 25 2 -6 -1 -18 -7 -28z m78 23
c9 -11 9 -16 -1 -22 -7 -4 -10 -4 -6 1 4 4 3 14 -3 22 -6 7 -9 13 -6 13 2 0
10 -6 16 -14z m301 4 c0 -5 -5 -10 -11 -10 -5 0 -7 5 -4 10 3 6 8 10 11 10 2
0 4 -4 4 -10z m-235 -39 c3 -5 2 -12 -3 -15 -5 -3 -9 1 -9 9 0 17 3 19 12 6z
m725 -57 c0 -1 -9 0 -20 3 -12 3 -20 14 -20 26 0 19 1 19 20 -3 11 -13 20 -24
20 -26z m-595 -5 c11 -16 1 -19 -13 -3 -7 8 -8 14 -3 14 5 0 13 -5 16 -11z
m-10 -29 c3 -5 1 -10 -4 -10 -6 0 -11 5 -11 10 0 6 2 10 4 10 3 0 8 -4 11 -10z
m122 -16 c-3 -3 -12 -4 -19 -1 -8 3 -5 6 6 6 11 1 17 -2 13 -5z m40 0 c-3 -3
-12 -4 -19 -1 -8 3 -5 6 6 6 11 1 17 -2 13 -5z m440 -16 c-3 -8 -6 -5 -6 6 -1
11 2 17 5 13 3 -3 4 -12 1 -19z m-517 2 c0 -5 -2 -10 -4 -10 -3 0 -8 5 -11 10
-3 6 -1 10 4 10 6 0 11 -4 11 -10z m-707 -128 c-6 -4 -13 -16 -16 -27 -4 -16
-5 -14 -6 7 0 14 5 28 12 31 16 6 24 -2 10 -11z m27 -32 c0 -5 -4 -10 -10 -10
-5 0 -10 5 -10 10 0 6 5 10 10 10 6 0 10 -4 10 -10z m80 0 c0 -5 -4 -10 -10
-10 -5 0 -10 5 -10 10 0 6 5 10 10 10 6 0 10 -4 10 -10z m6426 -67 c2 -13 -2
-25 -7 -28 -5 -4 -10 0 -10 7 -1 7 -3 29 -5 48 -3 31 -2 33 8 15 7 -11 13 -30
14 -42z m-6510 0 c-11 -11 -19 6 -11 24 8 17 8 17 12 0 3 -10 2 -21 -1 -24z
m4 -33 c0 -5 -9 -10 -20 -10 -11 0 -20 5 -20 10 0 6 9 10 20 10 11 0 20 -4 20
-10z m-93 -42 c-3 -7 -5 -2 -5 12 0 14 2 19 5 13 2 -7 2 -19 0 -25z m6633 7
c0 -8 -4 -15 -10 -15 -5 0 -10 7 -10 15 0 8 5 15 10 15 6 0 10 -7 10 -15z
m-6076 -23 c3 -5 -1 -9 -9 -9 -8 0 -12 4 -9 9 3 4 7 8 9 8 2 0 6 -4 9 -8z
m176 -2 c0 -5 -2 -10 -4 -10 -3 0 -8 5 -11 10 -3 6 -1 10 4 10 6 0 11 -4 11
-10z m499 -16 c-15 -18 -22 -13 -13 10 3 9 10 13 16 10 5 -3 4 -12 -3 -20z
m-1139 -9 c0 -14 -4 -25 -10 -25 -5 0 -10 11 -10 25 0 14 5 25 10 25 6 0 10
-11 10 -25z m5314 -31 c3 -8 2 -12 -4 -9 -6 3 -10 10 -10 16 0 14 7 11 14 -7z
m16 -28 c0 -2 -7 -7 -16 -10 -8 -3 -12 -2 -9 4 6 10 25 14 25 6z m90 -47 c0
-6 -4 -7 -10 -4 -5 3 -10 11 -10 16 0 6 5 7 10 4 6 -3 10 -11 10 -16z m-91
-69 c0 -10 -3 -8 -9 5 -12 27 -12 43 0 25 5 -8 9 -22 9 -30z m19 15 c-3 -3 -9
2 -12 12 -6 14 -5 15 5 6 7 -7 10 -15 7 -18z m26 10 c-4 -8 -8 -15 -10 -15 -2
0 -4 7 -4 15 0 8 4 15 10 15 5 0 7 -7 4 -15z m-4929 -35 c3 -5 1 -10 -4 -10
-6 0 -11 5 -11 10 0 6 2 10 4 10 3 0 8 -4 11 -10z m-558 -52 c-3 -7 -5 -2 -5
12 0 14 2 19 5 13 2 -7 2 -19 0 -25z m31 5 c2 -20 -1 -24 -9 -16 -7 7 -9 19
-6 27 9 23 12 20 15 -11z m349 -15 c-3 -8 -6 -5 -6 6 -1 11 2 17 5 13 3 -3 4
-12 1 -19z m5082 10 c6 11 10 10 15 -4 3 -9 4 -19 1 -22 -3 -3 -5 0 -5 7 0 7
-5 9 -10 6 -6 -4 -9 -24 -6 -46 2 -21 0 -41 -5 -45 -5 -3 -9 8 -9 24 0 16 -3
45 -6 63 -4 26 -3 30 5 19 9 -12 13 -13 20 -2z m-5169 -13 c11 -13 10 -14 -4
-9 -9 3 -16 10 -16 15 0 13 6 11 20 -6z m60 11 c0 -2 -7 -7 -16 -10 -8 -3 -12
-2 -9 4 6 10 25 14 25 6z m-243 -28 c-3 -8 -6 -5 -6 6 -1 11 2 17 5 13 3 -3 4
-12 1 -19z m303 12 c0 -5 -2 -10 -4 -10 -3 0 -8 5 -11 10 -3 6 -1 10 4 10 6 0
11 -4 11 -10z m811 -33 c-10 -9 -11 -8 -5 6 3 10 9 15 12 12 3 -3 0 -11 -7
-18z m-136 -6 c3 -5 1 -12 -5 -16 -5 -3 -10 1 -10 9 0 18 6 21 15 7z m32 -23
c-3 -8 -6 -5 -6 6 -1 11 2 17 5 13 3 -3 4 -12 1 -19z m70 -40 c-3 -8 -6 -5 -6
6 -1 11 2 17 5 13 3 -3 4 -12 1 -19z m4263 -38 c0 -5 -2 -10 -4 -10 -3 0 -8 5
-11 10 -3 6 -1 10 4 10 6 0 11 -4 11 -10z m10 -82 c0 -21 -3 -29 -10 -22 -5 5
-7 19 -4 32 9 31 14 27 14 -10z m7 -63 c0 -8 -4 -15 -9 -15 -4 0 -8 7 -8 15 0
8 4 15 8 15 5 0 9 -7 9 -15z m-5 -82 c-5 -40 -8 -39 -15 3 -3 19 0 31 7 31 7
0 10 -13 8 -34z m75 -95 c-3 -7 -5 -2 -5 12 0 14 2 19 5 13 2 -7 2 -19 0 -25z
m-90 -60 c-3 -8 -6 -5 -6 6 -1 11 2 17 5 13 3 -3 4 -12 1 -19z m10 -50 c-3 -7
-5 -2 -5 12 0 14 2 19 5 13 2 -7 2 -19 0 -25z m-4753 -26 c3 -5 -1 -9 -9 -9
-8 0 -12 4 -9 9 3 4 7 8 9 8 2 0 6 -4 9 -8z m-357 -34 c-3 -8 -6 -5 -6 6 -1
11 2 17 5 13 3 -3 4 -12 1 -19z m5123 -115 c0 -1 -8 -7 -18 -12 -13 -7 -19 -6
-19 2 0 7 9 13 19 13 10 0 18 -1 18 -3z m-5380 -33 c0 -5 -4 -10 -9 -10 -6 0
-13 5 -16 10 -3 6 1 10 9 10 9 0 16 -4 16 -10z m-82 -33 c-1 -2 3 -11 11 -20
7 -10 10 -17 5 -17 -15 0 -30 15 -28 28 3 23 4 25 10 20 3 -4 4 -8 2 -11z
m6659 -9 c-3 -8 -6 -5 -6 6 -1 11 2 17 5 13 3 -3 4 -12 1 -19z m-6540 -40 c-3
-8 -6 -5 -6 6 -1 11 2 17 5 13 3 -3 4 -12 1 -19z m-101 -25 c-10 -10 -19 5
-10 18 6 11 8 11 12 0 2 -7 1 -15 -2 -18z m5464 -97 c0 -2 -6 -6 -14 -9 -10
-4 -12 0 -9 14 5 18 -11 27 -20 12 -2 -5 -2 -2 0 5 1 8 3 21 3 30 0 11 8 4 20
-16 11 -18 20 -34 20 -36z m40 44 c0 -5 -4 -10 -10 -10 -5 0 -10 5 -10 10 0 6
5 10 10 10 6 0 10 -4 10 -10z m1127 -22 c-3 -8 -6 -5 -6 6 -1 11 2 17 5 13 3
-3 4 -12 1 -19z m-6586 -21 c-1 -12 -15 -9 -19 4 -3 6 1 10 8 8 6 -3 11 -8 11
-12z m5479 3 c0 -5 -9 -10 -20 -10 -11 0 -20 5 -20 10 0 6 9 10 20 10 11 0 20
-4 20 -10z m-5520 -40 c-18 -11 -22 -7 -14 14 5 13 10 14 18 6 8 -8 7 -13 -4
-20z m80 -20 c0 -5 -4 -10 -10 -10 -5 0 -10 -5 -10 -11 0 -6 7 -9 14 -6 10 4
13 1 9 -9 -7 -18 -13 -18 -29 4 -19 25 -17 42 6 42 11 0 20 -4 20 -10z m150 0
c0 -5 -4 -10 -10 -10 -5 0 -10 5 -10 10 0 6 5 10 10 10 6 0 10 -4 10 -10z
m-223 -52 c-3 -7 -5 -2 -5 12 0 14 2 19 5 13 2 -7 2 -19 0 -25z m5430 26 c-3
-3 -12 -4 -19 -1 -8 3 -5 6 6 6 11 1 17 -2 13 -5z m-55 -56 c-15 -15 -26 -4
-18 18 5 13 9 15 18 6 9 -9 9 -15 0 -24z m65 0 c-3 -7 -5 -2 -5 12 0 14 2 19
5 13 2 -7 2 -19 0 -25z m40 0 c-3 -7 -5 -2 -5 12 0 14 2 19 5 13 2 -7 2 -19 0
-25z m-5478 -14 c-9 -11 -9 -14 1 -14 6 0 10 -5 8 -11 -5 -16 -23 -11 -22 6 1
8 2 22 3 31 0 8 6 12 11 9 8 -5 7 -11 -1 -21z m47 -31 c-4 -4 -12 -1 -19 7 -9
10 -9 11 1 6 7 -4 12 -2 13 6 0 11 2 11 6 0 3 -7 2 -16 -1 -19z m5311 -5 c-3
-8 -6 -5 -6 6 -1 11 2 17 5 13 3 -3 4 -12 1 -19z m1203 -102 c0 -2 -3 -11 -6
-20 -9 -23 -24 -20 -24 4 0 11 7 20 15 20 8 0 15 -2 15 -4z m-5260 -241 c7 -9
8 -15 2 -15 -5 0 -12 7 -16 15 -3 8 -4 15 -2 15 2 0 9 -7 16 -15z m-890 -50
c0 -8 -4 -15 -10 -15 -5 0 -7 7 -4 15 4 8 8 15 10 15 2 0 4 -7 4 -15z m916
-19 c3 -8 1 -23 -6 -33 -9 -16 -10 -15 -4 6 4 15 1 27 -7 32 -11 7 -11 9 -1 9
7 0 15 -6 18 -14z m3906 -123 c-9 -4 -10 -8 -2 -18 8 -10 8 -15 -1 -21 -7 -4
-9 -3 -5 4 3 5 0 12 -6 15 -10 3 -10 7 1 21 8 9 17 14 20 10 3 -4 0 -9 -7 -11z
m-5042 -33 c0 -5 -4 -10 -10 -10 -5 0 -10 5 -10 10 0 6 5 10 10 10 6 0 10 -4
10 -10z m-23 -26 c-3 -3 -12 -4 -19 -1 -8 3 -5 6 6 6 11 1 17 -2 13 -5z m-32
-43 c3 -5 2 -12 -3 -15 -5 -3 -9 1 -9 9 0 17 3 19 12 6z m86 -64 c-8 -8 -11
-5 -11 9 0 27 14 41 18 19 2 -9 -1 -22 -7 -28z m-76 23 c3 -5 1 -10 -4 -10 -6
0 -11 5 -11 10 0 6 2 10 4 10 3 0 8 -4 11 -10z m34 -74 c0 -7 -2 -6 -6 2 -2 6
-9 10 -14 6 -5 -3 -9 2 -9 12 0 13 3 14 15 4 8 -7 15 -18 14 -24z m6261 30 c0
-3 -4 -8 -10 -11 -5 -3 -10 -1 -10 4 0 6 5 11 10 11 6 0 10 -2 10 -4z m-4980
-52 c24 -55 24 -55 5 -47 -9 3 -13 8 -11 11 3 3 1 11 -6 19 -6 7 -8 16 -5 20
4 3 2 14 -4 24 -5 11 -7 19 -4 19 3 0 15 -21 25 -46z m4950 -4 c0 -5 -2 -10
-4 -10 -3 0 -8 5 -11 10 -3 6 -1 10 4 10 6 0 11 -4 11 -10z m-6184 -56 c1 -9
0 -13 -4 -10 -3 4 -7 14 -8 22 -1 9 0 13 4 10 3 -4 7 -14 8 -22z m1278 -19 c9
-24 -9 -33 -20 -11 -8 17 -8 23 2 23 7 0 15 -6 18 -12z m3606 -30 c0 -5 -5 -3
-10 5 -5 8 -10 20 -10 25 0 6 5 3 10 -5 5 -8 10 -19 10 -25z m-39 -8 c-10 -9
-11 -8 -5 6 3 10 9 15 12 12 3 -3 0 -11 -7 -18z m19 -37 c0 -5 -2 -10 -4 -10
-3 0 -8 5 -11 10 -3 6 -1 10 4 10 6 0 11 -4 11 -10z m-59 -27 c-12 -20 -14
-14 -5 12 4 9 9 14 11 11 3 -2 0 -13 -6 -23z m-4721 13 c0 -3 -4 -8 -10 -11
-5 -3 -10 -1 -10 4 0 6 5 11 10 11 6 0 10 -2 10 -4z m104 -11 c17 -13 17 -15
2 -31 -9 -9 -20 -13 -24 -10 -3 4 0 11 8 16 16 10 15 12 -15 28 -14 8 -15 11
-5 11 8 0 23 -6 34 -14z m1136 -11 c0 -8 -5 -12 -10 -9 -6 4 -8 11 -5 16 9 14
15 11 15 -7z m-1180 -20 c0 -7 -40 -44 -47 -44 -2 0 4 11 14 25 17 23 33 32
33 19z m4011 -64 c12 -16 26 -27 31 -24 4 3 8 1 8 -4 0 -14 -28 -23 -35 -11
-4 5 -10 7 -15 4 -12 -7 -42 50 -32 60 4 5 1 5 -6 1 -7 -4 -15 -1 -18 8 -3 9
-10 13 -16 10 -5 -3 -2 -14 8 -25 10 -11 19 -27 20 -36 2 -9 8 -19 14 -23 7
-4 -1 -7 -16 -7 -16 0 -23 2 -17 4 10 4 10 10 1 26 -6 12 -11 24 -10 27 3 9
-23 6 -38 -4 -8 -6 -2 4 14 21 28 31 30 31 57 17 16 -8 38 -28 50 -44z m-3929
28 c0 -13 1 -30 0 -38 0 -8 5 -18 11 -23 9 -6 9 -10 0 -14 -9 -3 -13 -30 -13
-84 0 -46 -4 -79 -10 -79 -6 0 -10 33 -10 80 0 47 -4 80 -10 80 -14 0 -12 38
3 43 8 3 5 11 -11 25 -16 14 -19 22 -10 25 30 12 48 7 50 -15z m-62 -28 c0 -5
-5 -10 -11 -10 -5 0 -7 5 -4 10 3 6 8 10 11 10 2 0 4 -4 4 -10z m4616 -25 c2
-19 -2 -25 -18 -25 -15 0 -18 4 -14 17 4 9 1 21 -6 26 -9 6 -8 7 5 3 9 -3 17
0 17 6 0 21 13 -2 16 -27z m-4713 1 c15 -22 15 -24 0 -22 -9 2 -18 12 -20 24
-4 28 1 28 20 -2z m79 -26 c20 0 24 -15 7 -25 -6 -4 -19 2 -30 14 -20 22 -27
43 -7 23 7 -7 20 -12 30 -12z m4090 -15 c3 3 13 -4 23 -16 17 -17 17 -22 5
-29 -12 -8 -11 -10 5 -11 11 -1 26 -3 32 -3 17 -2 51 -36 35 -36 -6 0 -10 -6
-8 -12 1 -7 1 -10 -1 -5 -8 13 -23 8 -23 -8 0 -23 -20 -18 -21 5 -1 11 -2 25
-3 30 -2 15 -28 30 -41 22 -5 -3 -5 1 2 9 10 12 8 18 -7 32 -11 9 -24 16 -28
16 -19 -3 -26 2 -12 11 9 5 19 5 26 0 6 -6 13 -8 16 -5z m-4152 -23 c0 -15 -2
-15 -10 -2 -13 20 -13 33 0 25 6 -3 10 -14 10 -23z m3860 -12 c0 -5 -4 -10 -8
-10 -9 0 -10 -7 -13 -55 -1 -13 -5 -22 -10 -19 -5 3 -6 17 -3 32 4 16 3 23 -2
19 -5 -5 -9 -14 -9 -20 0 -7 -8 -11 -18 -11 -9 1 -14 -2 -11 -7 3 -5 -1 -9 -8
-9 -9 0 -9 -3 2 -10 20 -13 33 -13 25 0 -10 16 1 12 16 -6 11 -14 10 -16 -16
-13 -17 2 -36 -1 -44 -5 -10 -7 -12 -5 -6 5 8 12 6 12 -8 0 -9 -7 -17 -20 -17
-28 0 -10 -5 -11 -19 -4 -17 10 -12 17 52 81 67 65 97 84 97 60z m270 0 c0 -5
-2 -10 -4 -10 -3 0 -8 5 -11 10 -3 6 -1 10 4 10 6 0 11 -4 11 -10z m421 -45
c-17 -20 -31 -33 -31 -30 0 10 54 74 58 70 3 -2 -9 -20 -27 -40z m-565 21 c16
-17 19 -46 4 -46 -5 0 -10 8 -10 18 0 10 -5 23 -12 30 -7 7 -9 12 -4 12 4 0
14 -6 22 -14z m114 -17 c0 -5 -4 -9 -10 -9 -5 0 -10 7 -10 16 0 8 5 12 10 9 6
-3 10 -10 10 -16z m73 -26 c-5 -12 -3 -14 8 -8 12 7 12 6 0 -9 -14 -17 -15
-17 -23 4 -9 24 -2 44 12 35 5 -3 6 -13 3 -22z m-263 7 c-19 -13 -30 -13 -30
0 0 6 10 10 23 10 18 0 19 -2 7 -10z m150 -19 c0 -5 9 -11 20 -14 11 -3 20
-12 20 -21 0 -22 -13 -20 -30 4 -16 22 -50 27 -50 8 0 -6 -2 -9 -5 -6 -3 3 -3
13 1 22 6 16 44 23 44 7z m-150 -21 c0 -5 -5 -10 -11 -10 -5 0 -7 5 -4 10 3 6
8 10 11 10 2 0 4 -4 4 -10z m40 0 c0 -5 -7 -10 -15 -10 -8 0 -15 5 -15 10 0 6
7 10 15 10 8 0 15 -4 15 -10z m567 -6 c-3 -3 -12 -4 -19 -1 -8 3 -5 6 6 6 11
1 17 -2 13 -5z m-2991 -71 c1 -17 -4 -16 -22 2 -9 8 -12 15 -7 15 4 0 0 5 -9
11 -10 5 -18 17 -18 26 0 19 55 -35 56 -54z m2946 15 c-6 -6 -7 0 -4 19 5 21
7 23 10 9 2 -10 0 -22 -6 -28z m1408 38 c0 -3 -4 -8 -10 -11 -5 -3 -10 -1 -10
4 0 6 5 11 10 11 6 0 10 -2 10 -4z m-2120 -13 c0 -14 -19 -38 -25 -32 -8 8 5
39 16 39 5 0 9 -3 9 -7z m-65 -13 c4 -6 1 -9 -7 -8 -7 2 -12 -4 -10 -14 3 -22
-18 -34 -30 -17 -7 10 -9 8 -5 -8 5 -22 -9 -34 -45 -38 -14 -1 -15 1 -6 12 6
8 17 12 25 9 8 -4 13 0 11 9 -2 8 11 26 27 40 35 29 32 28 40 15z m30 -39 c3
-5 1 -12 -5 -16 -5 -3 -10 1 -10 9 0 18 6 21 15 7z m-2145 -26 c0 -12 -29 -3
-34 10 -4 13 -2 14 14 5 11 -6 20 -13 20 -15z m2780 15 c0 -5 -10 -10 -22 -10
-19 0 -20 2 -8 10 19 13 30 13 30 0z m-600 -20 c0 -5 -4 -10 -10 -10 -5 0 -10
5 -10 10 0 6 5 10 10 10 6 0 10 -4 10 -10z m-83 -22 c-3 -8 -6 -5 -6 6 -1 11
2 17 5 13 3 -3 4 -12 1 -19z m-11 -58 c0 -11 -6 -20 -13 -20 -16 0 -17 12 -1
28 7 7 12 12 13 12 0 0 1 -9 1 -20z m54 0 c0 -5 -4 -10 -10 -10 -5 0 -10 5
-10 10 0 6 5 10 10 10 6 0 10 -4 10 -10z m-2015 -20 c3 -5 1 -10 -4 -10 -6 0
-11 5 -11 10 0 6 2 10 4 10 3 0 8 -4 11 -10z m1919 -5 c-4 -8 -11 -12 -16 -9
-6 4 -5 10 3 15 19 12 19 11 13 -6z m-1999 -23 c-8 -8 -25 10 -19 20 4 6 9 5
15 -3 4 -7 6 -15 4 -17z m2035 7 c0 -5 -4 -7 -10 -4 -5 3 -10 1 -10 -4 0 -17
18 -13 30 7 9 14 11 14 7 1 -3 -9 0 -23 6 -30 10 -11 9 -11 -5 0 -21 15 -24 2
-5 -19 6 -8 0 -4 -15 9 -31 27 -37 51 -13 51 8 0 15 -5 15 -11z m-1965 -9 c3
-5 1 -10 -4 -10 -6 0 -11 5 -11 10 0 6 2 10 4 10 3 0 8 -4 11 -10z m2055 -21
c0 -14 -27 -10 -33 5 -4 10 0 12 14 9 10 -3 19 -9 19 -14z m-1955 -19 c3 -5 1
-10 -4 -10 -6 0 -11 5 -11 10 0 6 2 10 4 10 3 0 8 -4 11 -10z m1929 -29 c12
-13 14 -21 6 -26 -6 -3 -9 -1 -8 6 2 7 -3 14 -9 15 -23 3 -24 4 -18 14 8 13 9
13 29 -9z m1996 -1 c0 -5 -5 -10 -11 -10 -5 0 -7 5 -4 10 3 6 8 10 11 10 2 0
4 -4 4 -10z m-3869 -23 c-10 -9 -11 -8 -5 6 3 10 9 15 12 12 3 -3 0 -11 -7
-18z m52 -21 c7 4 9 4 5 0 -3 -4 -8 -6 -11 -4 -3 2 -14 -5 -25 -15 -21 -19
-42 -16 -42 5 0 6 3 9 6 6 3 -4 15 3 27 15 20 20 22 20 25 4 2 -10 8 -14 15
-11z m1933 5 c0 -14 -4 -17 -12 -11 -6 6 -13 9 -15 7 -2 -1 2 4 10 11 8 6 15
12 16 12 0 0 1 -9 1 -19z m-3440 -58 c-9 -10 -35 -13 -40 -4 -3 4 7 8 21 9 15
1 23 -1 19 -5z m1639 -13 c10 -11 15 -23 12 -27 -4 -3 -7 -1 -7 5 0 7 -7 12
-15 12 -8 0 -15 5 -15 11 0 5 -4 7 -10 4 -5 -3 -10 -1 -10 4 0 18 26 12 45 -9z
m-1665 -42 c0 -4 -6 -5 -14 -2 -8 3 -12 12 -9 21 5 12 7 12 14 1 5 -7 9 -16 9
-20z m1648 23 c11 -7 11 -9 0 -13 -7 -3 -19 1 -26 8 -10 11 -10 14 0 14 7 0
19 -4 26 -9z m-58 -11 c0 -5 -4 -10 -10 -10 -5 0 -10 5 -10 10 0 6 5 10 10 10
6 0 10 -4 10 -10z m-1550 -34 c0 -11 -19 -15 -25 -6 -3 5 1 10 9 10 9 0 16 -2
16 -4z m1830 -16 c8 -5 11 -10 5 -10 -5 0 -17 5 -25 10 -8 5 -10 10 -5 10 6 0
17 -5 25 -10z m-1740 -10 c0 -5 -4 -10 -10 -10 -5 0 -10 5 -10 10 0 6 5 10 10
10 6 0 10 -4 10 -10z m1754 -36 c3 -8 2 -12 -4 -9 -6 3 -10 10 -10 16 0 14 7
11 14 -7z m3213 10 c-3 -3 -12 -4 -19 -1 -8 3 -5 6 6 6 11 1 17 -2 13 -5z
m-5026 -21 c13 -16 12 -17 -3 -4 -10 7 -18 15 -18 17 0 8 8 3 21 -13z m1883
-14 c-3 -5 -10 -7 -15 -3 -5 3 -7 10 -3 15 3 5 10 7 15 3 5 -3 7 -10 3 -15z
m161 -1 c4 -3 2 -9 -3 -12 -5 -3 -15 1 -21 8 -10 11 -9 14 3 12 9 -1 18 -5 21
-8z m1019 -10 c-5 -7 -2 -9 8 -5 20 7 67 -41 63 -65 -2 -11 2 -15 12 -11 9 4
16 -2 20 -16 3 -11 9 -19 12 -16 4 2 8 -2 8 -10 0 -16 -48 21 -79 61 -11 13
-24 22 -29 19 -5 -4 -9 -1 -9 4 0 14 13 14 28 -1 8 -8 12 -8 12 -1 0 6 -6 16
-14 22 -11 9 -18 8 -30 -4 -9 -9 -14 -20 -11 -25 3 -4 -2 -11 -11 -14 -12 -5
-15 -2 -9 11 11 30 11 35 -4 41 -9 3 -12 0 -9 -10 5 -11 0 -14 -20 -11 -21 4
-24 2 -12 -6 8 -6 10 -11 5 -11 -6 0 -16 5 -22 11 -14 14 -47 4 -38 -11 3 -6
-4 -10 -17 -10 -18 0 -20 2 -8 10 12 7 8 10 -14 10 -28 0 -29 1 -10 14 12 10
23 11 31 5 7 -7 14 -6 18 1 4 6 20 8 41 4 24 -4 34 -3 34 6 0 7 8 10 20 7 11
-3 23 -1 26 4 3 5 7 9 10 9 3 0 2 -5 -2 -12z m-761 -15 c-7 -2 -19 -2 -25 0
-7 3 -2 5 12 5 14 0 19 -2 13 -5z m105 -17 c3 -3 -6 -6 -21 -6 -14 0 -28 4
-31 9 -6 9 42 6 52 -3z m32 4 c0 -5 -2 -10 -4 -10 -3 0 -8 5 -11 10 -3 6 -1
10 4 10 6 0 11 -4 11 -10z m195 -6 c-47 -7 -175 -9 -175 -2 0 5 44 7 98 7 53
-1 88 -3 77 -5z m-225 -34 c0 -5 -4 -10 -10 -10 -5 0 -10 5 -10 10 0 6 5 10
10 10 6 0 10 -4 10 -10z m697 -22 c-3 -8 -6 -5 -6 6 -1 11 2 17 5 13 3 -3 4
-12 1 -19z m-2992 2 c-3 -5 -1 -10 6 -10 7 0 10 -3 6 -6 -9 -9 -28 6 -22 17 4
5 8 9 11 9 3 0 2 -4 -1 -10z m2975 4 c0 -8 -19 -13 -24 -6 -3 5 1 9 9 9 8 0
15 -2 15 -3z m-20 -44 c11 -7 4 -10 -27 -10 -24 0 -43 5 -43 10 0 13 50 13 70
0z m10 -30 c0 -5 -4 -10 -10 -10 -5 0 -10 5 -10 10 0 6 5 10 10 10 6 0 10 -4
10 -10z m60 -5 c0 -19 10 -19 38 1 12 8 22 11 22 5 0 -5 -5 -13 -11 -16 -7 -5
-4 -14 8 -28 l18 -22 -22 18 c-12 11 -27 16 -32 12 -12 -7 -41 17 -41 34 0 6
5 11 10 11 6 0 10 -7 10 -15z m170 -70 c36 -36 49 -55 38 -55 -9 0 -20 5 -23
10 -4 6 -14 9 -22 8 -14 -3 -22 12 -25 48 -1 6 -11 10 -22 9 -12 -1 -25 0 -29
2 -8 5 11 33 22 33 4 0 31 -25 61 -55z m-230 25 c0 -5 -4 -10 -10 -10 -5 0
-10 5 -10 10 0 6 5 10 10 10 6 0 10 -4 10 -10z m187 -75 c0 -8 -7 -15 -15 -15
-12 0 -12 3 -2 15 7 8 13 15 15 15 1 0 2 -7 2 -15z m35 -26 c3 -9 9 -9 25 0
20 10 21 9 17 -15 -3 -14 -1 -23 4 -20 5 3 9 -1 9 -9 0 -10 -4 -12 -12 -5 -7
5 -16 6 -20 2 -5 -4 -5 -1 -1 5 4 8 -2 17 -18 25 -14 6 -26 15 -26 20 0 12 18
10 22 -3z m86 -44 c-3 -3 -9 2 -12 12 -6 14 -5 15 5 6 7 -7 10 -15 7 -18z
m1694 -22 c-6 -2 -9 -10 -6 -15 4 -7 2 -8 -5 -4 -13 9 -5 26 12 25 9 0 8 -2
-1 -6z m25 -28 c0 -8 -4 -15 -9 -15 -10 0 -11 14 -1 23 9 10 10 9 10 -8z
m-1620 -23 c-1 -4 1 -7 5 -7 14 0 107 -98 102 -107 -3 -5 0 -7 7 -6 12 3 47
-54 49 -77 0 -5 -12 -11 -27 -12 -22 -1 -24 1 -10 8 13 8 14 14 5 34 -6 14
-19 27 -30 30 -10 4 -19 12 -20 18 0 7 -2 17 -2 22 -1 6 -5 16 -10 24 -7 11
-10 11 -17 0 -6 -11 -11 -11 -20 -2 -6 6 -18 9 -25 6 -8 -3 -14 1 -14 11 0 9
5 16 11 16 5 0 8 -3 6 -7 -3 -5 5 -8 18 -8 23 0 25 15 2 15 -7 1 -24 11 -39
23 -25 20 -26 23 -8 24 11 1 19 -1 17 -5z m-30 -28 c-3 -3 -12 -4 -19 -1 -8 3
-5 6 6 6 11 1 17 -2 13 -5z m1660 -76 c-3 -7 -5 -2 -5 12 0 14 2 19 5 13 2 -7
2 -19 0 -25z m141 14 c2 -7 -1 -12 -8 -12 -6 0 -8 5 -4 12 5 8 2 9 -10 5 -11
-4 -15 -3 -11 4 8 12 27 7 33 -9z m-1738 -12 c0 -5 -2 -10 -4 -10 -3 0 -8 5
-11 10 -3 6 -1 10 4 10 6 0 11 -4 11 -10z m1783 -40 c4 0 5 5 1 12 -4 7 -3 8
5 4 6 -4 9 -12 6 -17 -4 -5 -1 -9 4 -9 6 0 11 -5 11 -11 0 -7 -9 -5 -24 5 -14
9 -31 14 -38 13 -7 -2 -9 -2 -5 1 4 2 2 11 -5 20 -11 14 -9 14 12 -1 13 -9 28
-17 33 -17z m-1746 6 c-3 -8 2 -16 14 -19 14 -4 17 -10 12 -24 -7 -17 -8 -17
-11 0 -2 9 -10 17 -18 17 -8 0 -14 9 -14 20 0 11 5 20 11 20 6 0 9 -6 6 -14z
m127 -81 c-4 -8 -11 -12 -16 -9 -6 4 -5 10 3 15 19 12 19 11 13 -6z m517 -2
c13 -16 12 -17 -3 -4 -17 13 -22 21 -14 21 2 0 10 -8 17 -17z m-542 -30 c10
-19 9 -22 -4 -17 -8 3 -12 10 -9 15 3 5 0 9 -6 9 -6 0 -8 5 -5 11 8 12 8 12
24 -18z m1702 -6 c-10 -9 -11 -8 -5 6 3 10 9 15 12 12 3 -3 0 -11 -7 -18z
m-1038 -73 c-6 -16 -16 -11 -19 11 -1 8 4 11 11 8 8 -2 11 -11 8 -19z m1122 6
c-3 -5 -12 -10 -18 -10 -7 0 -6 4 3 10 19 12 23 12 15 0z m-1098 -27 c-4 -3 3
-18 15 -32 l23 -26 -27 24 c-24 21 -29 41 -11 41 4 0 3 -3 0 -7z m-587 -7 c0
-3 -4 -8 -10 -11 -5 -3 -10 -1 -10 4 0 6 5 11 10 11 6 0 10 -2 10 -4z m-36
-17 c-2 -4 1 -9 8 -11 7 -3 3 -7 -9 -10 -15 -4 -20 -2 -17 7 3 7 -3 15 -13 18
-10 3 -7 4 9 4 15 -1 25 -4 22 -8z m1749 -6 c-7 -2 -13 -12 -13 -21 0 -14 -2
-15 -9 -2 -12 18 -5 30 17 29 11 0 12 -3 5 -6z m106 -33 c0 -10 -3 -8 -9 5
-12 27 -12 43 0 25 5 -8 9 -22 9 -30z m-1755 18 c-3 -4 -9 -8 -15 -8 -5 0 -9
4 -9 8 0 5 7 9 15 9 8 0 12 -4 9 -9z m1680 1 c-3 -6 0 -15 7 -20 7 -4 10 -11
6 -16 -5 -4 -12 -1 -18 7 -8 13 -10 13 -19 0 -6 -9 -10 -10 -10 -3 0 6 7 19
16 27 18 18 28 21 18 5z m73 -56 c-3 -3 -13 1 -21 10 -8 8 -12 17 -9 20 3 3
12 -1 20 -9 9 -8 13 -18 10 -21z m-107 1 c0 -8 -19 -13 -24 -6 -3 5 1 9 9 9 8
0 15 -2 15 -3z m270 -74 c0 -5 -5 -10 -11 -10 -5 0 -7 5 -4 10 3 6 8 10 11 10
2 0 4 -4 4 -10z m-170 -20 c8 -5 11 -12 8 -16 -4 -3 -14 1 -23 10 -18 17 -9
21 15 6z m-3463 -6 c-3 -3 -12 -4 -19 -1 -8 3 -5 6 6 6 11 1 17 -2 13 -5z
m185 -1 c-6 -2 -9 -10 -5 -16 4 -7 0 -8 -11 -4 -10 4 -23 7 -29 8 -17 1 25 18
43 18 10 -1 11 -2 2 -6z m3448 -3 c0 -5 -4 -10 -10 -10 -5 0 -10 5 -10 10 0 6
5 10 10 10 6 0 10 -4 10 -10z m-3557 -7 c-7 -2 -19 -2 -25 0 -7 3 -2 5 12 5
14 0 19 -2 13 -5z m3662 -222 c-9 -8 -36 -10 -30 -2 2 4 11 8 20 8 8 0 13 -3
10 -6z m95 -21 c0 -5 -4 -10 -10 -10 -5 0 -10 5 -10 10 0 6 5 10 10 10 6 0 10
-4 10 -10z m95 0 c3 -5 1 -10 -4 -10 -6 0 -11 5 -11 10 0 6 2 10 4 10 3 0 8
-4 11 -10z m52 -66 c-3 -3 -12 -4 -19 -1 -8 3 -5 6 6 6 11 1 17 -2 13 -5z
m-767 -394 c0 -5 -2 -10 -4 -10 -3 0 -8 5 -11 10 -3 6 -1 10 4 10 6 0 11 -4
11 -10z m-15 -42 c6 -4 2 -8 -7 -8 -10 0 -18 7 -18 17 0 9 3 12 8 7 4 -5 12
-12 17 -16z"/>
<path d="M7207 13503 c-4 -3 -7 -11 -7 -17 0 -6 5 -5 12 2 6 6 9 14 7 17 -3 3
-9 2 -12 -2z"/>
<path d="M7180 13465 c0 -8 7 -15 16 -15 14 0 14 3 4 15 -7 8 -14 15 -16 15
-2 0 -4 -7 -4 -15z"/>
<path d="M11000 9331 c0 -5 11 -16 25 -25 25 -17 25 -16 13 3 -13 22 -38 36
-38 22z"/>
<path d="M9922 14775 c2 -3 58 -5 124 -6 75 0 124 -5 133 -12 12 -9 13 -9 7 1
-5 8 1 12 18 12 14 0 26 -5 26 -11 0 -5 6 -7 12 -3 18 11 82 4 90 -9 6 -9 8
-8 8 1 0 7 6 12 13 11 6 -1 23 0 37 1 14 2 -6 6 -45 10 -81 9 -431 12 -423 5z"/>
<path d="M10458 14753 c12 -2 30 -2 40 0 9 3 -1 5 -23 4 -22 0 -30 -2 -17 -4z"/>
<path d="M9838 14743 c7 -3 16 -2 19 1 4 3 -2 6 -13 5 -11 0 -14 -3 -6 -6z"/>
<path d="M10530 14746 c0 -2 14 -6 30 -8 17 -3 30 -1 30 4 0 4 -13 8 -30 8
-16 0 -30 -2 -30 -4z"/>
<path d="M9028 14693 c6 -2 18 -2 25 0 6 3 1 5 -13 5 -14 0 -19 -2 -12 -5z"/>
<path d="M10850 14690 c0 -5 7 -7 15 -4 8 4 21 1 28 -4 7 -6 19 -7 26 -3 8 6
2 10 -19 15 -43 8 -50 8 -50 -4z"/>
<path d="M8978 14683 c6 -2 18 -2 25 0 6 3 1 5 -13 5 -14 0 -19 -2 -12 -5z"/>
<path d="M10948 14673 c7 -3 16 -2 19 1 4 3 -2 6 -13 5 -11 0 -14 -3 -6 -6z"/>
<path d="M12010 14666 c0 -8 4 -17 9 -20 5 -4 7 3 4 14 -6 23 -13 26 -13 6z"/>
<path d="M10988 14663 c7 -3 16 -2 19 1 4 3 -2 6 -13 5 -11 0 -14 -3 -6 -6z"/>
<path d="M8830 14650 c-21 -7 -21 -8 -5 -9 11 0 27 4 35 9 18 11 5 11 -30 0z"/>
<path d="M9025 14650 c-13 -6 -15 -9 -5 -9 8 0 22 4 30 9 18 12 2 12 -25 0z"/>
<path d="M10955 14650 c-3 -5 -1 -10 4 -10 6 0 11 5 11 10 0 6 -2 10 -4 10 -3
0 -8 -4 -11 -10z"/>
<path d="M8637 14593 c-75 -24 -135 -49 -131 -54 3 -5 12 -5 23 1 12 6 22 5
30 -3 10 -9 11 -8 5 7 -6 15 -4 18 9 13 8 -3 17 -2 19 3 2 5 12 11 23 13 11 1
25 6 31 9 6 4 30 10 52 14 23 4 42 10 42 15 0 5 5 9 10 9 6 0 10 -7 8 -16 -2
-10 2 -19 9 -21 6 -2 10 4 9 14 -2 10 4 23 13 30 29 22 -7 14 -152 -34z"/>
<path d="M10415 14630 c3 -5 8 -10 11 -10 2 0 4 5 4 10 0 6 -5 10 -11 10 -5 0
-7 -4 -4 -10z"/>
<path d="M12458 14593 c6 -2 18 -2 25 0 6 3 1 5 -13 5 -14 0 -19 -2 -12 -5z"/>
<path d="M8530 14525 c-11 -13 -10 -14 4 -9 9 3 16 10 16 15 0 13 -6 11 -20
-6z"/>
<path d="M11546 14463 c-6 -14 -5 -15 5 -6 7 7 10 15 7 18 -3 3 -9 -2 -12 -12z"/>
<path d="M12154 14102 c0 -10 8 -18 18 -18 16 0 16 2 1 18 -9 10 -17 18 -17
18 -1 0 -2 -8 -2 -18z"/>
<path d="M12194 14068 c-4 -7 -3 -10 1 -5 5 4 20 -3 34 -15 l26 -23 -24 28
c-28 31 -28 31 -37 15z"/>
<path d="M12340 13948 c41 -45 50 -53 50 -45 0 2 -21 23 -47 47 l-48 45 45
-47z"/>
<path d="M7512 13907 c-34 -34 -62 -66 -62 -69 0 -8 33 24 93 90 59 63 40 51
-31 -21z"/>
<path d="M12360 13876 c0 -8 4 -17 9 -20 5 -4 7 3 4 14 -6 23 -13 26 -13 6z"/>
<path d="M12400 13886 c0 -2 8 -10 18 -17 15 -13 16 -12 3 4 -13 16 -21 21
-21 13z"/>
<path d="M7460 13780 c0 -5 5 -10 10 -10 6 0 10 5 10 10 0 6 -4 10 -10 10 -5
0 -10 -4 -10 -10z"/>
<path d="M12554 13668 c-19 -23 -19 -23 2 -5 11 9 24 14 29 10 4 -5 5 -2 1 5
-9 16 -10 16 -32 -10z"/>
<path d="M7285 13610 c-3 -5 -2 -10 4 -10 5 0 13 5 16 10 3 6 2 10 -4 10 -5 0
-13 -4 -16 -10z"/>
<path d="M7060 13310 c-6 -11 -8 -20 -6 -20 3 0 10 9 16 20 6 11 8 20 6 20 -3
0 -10 -9 -16 -20z"/>
<path d="M6994 13189 c-25 -50 -43 -93 -41 -96 3 -2 8 5 12 17 4 13 12 19 20
16 9 -3 12 0 8 10 -3 7 -2 22 1 31 6 15 8 15 17 3 8 -12 9 -11 5 5 -6 22 5 47
20 44 22 -4 44 2 44 12 0 6 -7 8 -16 5 -24 -9 -35 3 -24 25 6 10 8 19 5 19 -2
0 -25 -41 -51 -91z"/>
<path d="M7090 13252 c0 -5 7 -15 15 -22 8 -7 15 -8 15 -2 0 5 -7 15 -15 22
-8 7 -15 8 -15 2z"/>
<path d="M12880 13191 c0 -6 4 -13 10 -16 6 -3 7 1 4 9 -7 18 -14 21 -14 7z"/>
<path d="M12910 13131 c0 -6 4 -13 10 -16 6 -3 7 1 4 9 -7 18 -14 21 -14 7z"/>
<path d="M6938 12993 c7 -3 16 -2 19 1 4 3 -2 6 -13 5 -11 0 -14 -3 -6 -6z"/>
<path d="M6872 12925 c-15 -32 -15 -35 -1 -35 5 0 7 5 4 10 -3 6 -2 10 2 10 5
0 9 9 10 20 2 26 -1 25 -15 -5z"/>
<path d="M6790 12495 c-10 -12 -10 -15 4 -15 9 0 16 7 16 15 0 8 -2 15 -4 15
-2 0 -9 -7 -16 -15z"/>
<path d="M13227 12075 c-4 -11 -10 -27 -14 -35 -4 -10 -1 -10 11 3 10 9 16 25
14 35 -3 15 -5 15 -11 -3z"/>
<path d="M13235 12014 c0 -13 3 -24 8 -24 4 0 7 9 7 19 0 11 -3 22 -7 24 -5 3
-8 -6 -8 -19z"/>
<path d="M9522 11673 c-35 -14 -61 -28 -58 -30 2 -3 15 1 27 8 13 6 36 12 51
11 17 0 26 3 22 10 -4 6 2 6 15 -1 11 -7 21 -13 21 -16 0 -2 3 -11 7 -21 5
-14 3 -16 -11 -11 -11 4 -15 3 -11 -4 4 -6 13 -8 21 -5 8 3 14 0 14 -6 0 -6 2
-9 5 -6 6 6 -25 98 -33 98 -4 -1 -35 -13 -70 -27z"/>
<path d="M11010 11689 c-13 -8 -13 -9 0 -9 10 0 11 -3 3 -11 -6 -6 -9 -18 -5
-27 4 -11 1 -14 -12 -9 -10 4 -15 3 -11 -3 4 -7 -3 -9 -19 -6 -14 3 -26 0 -26
-5 0 -5 -11 -9 -24 -9 -14 0 -28 -4 -31 -10 -3 -5 -21 -10 -38 -10 -24 0 -28
3 -17 10 8 5 24 7 35 5 11 -3 14 -2 7 1 -6 3 -9 10 -6 16 9 14 -147 -68 -196
-103 -22 -16 -39 -32 -39 -37 3 -20 -2 -33 -11 -27 -6 4 -7 12 -3 18 3 7 -4 3
-18 -8 -58 -47 -78 -69 -72 -78 3 -6 1 -7 -5 -3 -18 11 -147 -137 -136 -156 3
-5 0 -7 -6 -6 -6 2 -32 -34 -57 -79 -25 -46 -40 -83 -34 -83 6 0 11 6 11 14 0
7 14 31 32 52 17 22 28 31 25 21 -4 -10 -7 -23 -7 -28 0 -6 -4 -8 -9 -5 -5 3
-11 -3 -14 -14 -6 -22 8 -28 17 -7 3 6 3 1 0 -12 -4 -14 -1 -27 7 -32 10 -6 8
-9 -8 -9 -15 0 -23 6 -23 18 0 14 -2 15 -10 2 -5 -9 -5 -17 1 -21 6 -3 4 -11
-5 -18 -12 -10 -16 -8 -21 10 l-7 22 -14 -24 c-7 -13 -13 -28 -13 -34 0 -5 6
1 13 14 10 19 14 20 19 8 3 -9 -1 -21 -9 -28 -9 -7 -13 -20 -11 -30 3 -12 0
-16 -9 -12 -7 2 -10 11 -7 19 3 8 3 14 -1 14 -9 0 -54 -157 -72 -250 -13 -68
-17 -176 -21 -549 -4 -421 -3 -463 11 -458 9 4 16 2 16 -2 0 -5 -7 -11 -15
-15 -18 -7 -20 -32 -2 -39 10 -4 10 -6 0 -6 -7 -1 -13 -10 -13 -21 l0 -21 22
21 c25 23 35 25 40 9 3 -8 43 -11 122 -10 65 1 121 2 125 3 3 1 22 -2 41 -8
28 -7 2 -10 -120 -14 -89 -4 48 -7 323 -8 309 -1 476 1 472 8 -3 5 -6 186 -7
402 -1 216 -4 371 -7 343 l-5 -50 -6 55 -7 55 -1 -67 c-1 -38 -6 -68 -12 -68
-14 0 -6 163 9 168 6 2 11 11 11 19 0 11 -7 8 -24 -12 -25 -28 -61 -30 -50 -2
5 15 -33 27 -85 27 -15 0 -32 5 -39 12 -9 9 -12 9 -12 -2 0 -13 -2 -13 -10 0
-6 10 -10 11 -10 3 0 -7 -5 -13 -11 -13 -5 0 -7 6 -3 13 4 6 -2 4 -13 -5 -15
-14 -36 -18 -99 -16 -66 1 -71 2 -34 7 25 4 62 6 82 5 21 0 35 2 33 6 -3 4
-18 6 -35 5 -16 -1 -30 1 -30 6 0 5 71 10 158 12 112 2 83 3 -100 5 -224 2
-258 0 -258 -13 0 -8 5 -14 11 -12 6 1 13 -3 15 -8 2 -6 -4 -11 -15 -12 -18
-2 -19 4 -14 95 15 294 85 467 253 625 42 39 115 95 163 122 47 28 86 54 87
59 0 5 -7 3 -15 -4 -9 -7 -19 -9 -23 -5 -4 4 -1 10 6 12 6 3 10 9 6 14 -3 5 2
9 11 9 8 0 18 -6 21 -14 3 -8 13 -12 23 -9 16 4 12 19 -36 136 -30 73 -59 133
-63 135 -5 2 -7 9 -4 17 7 17 -8 26 -26 14z m40 -61 c0 -5 -5 -18 -10 -28 -8
-15 -5 -22 12 -34 12 -9 20 -18 17 -20 -2 -3 -15 3 -28 13 -20 15 -22 21 -12
39 8 15 8 22 1 22 -5 0 -10 -5 -10 -11 0 -5 -5 -7 -12 -3 -8 5 -6 11 5 19 9 7
14 15 10 19 -4 4 0 4 10 0 9 -3 17 -10 17 -16z m-85 -18 c-6 -9 1 -12 22 -9 9
1 26 -32 19 -38 -3 -4 -6 -1 -6 5 0 7 -6 12 -14 12 -17 0 -38 24 -29 33 10 10
15 8 8 -3z m99 -26 c3 -8 2 -12 -4 -9 -6 3 -10 10 -10 16 0 14 7 11 14 -7z
m-270 -13 c3 -5 -3 -11 -15 -14 -16 -4 -18 -3 -8 9 13 16 16 17 23 5z m-66
-45 c-2 -1 -12 -8 -22 -16 -18 -14 -19 -14 -7 8 7 12 17 20 22 16 6 -3 9 -7 7
-8z m-58 -36 c-6 -11 -16 -17 -22 -14 -7 5 -5 12 7 21 25 18 28 17 15 -7z
m434 -7 c22 -26 16 -31 -8 -7 -9 8 -16 11 -16 5 0 -5 5 -13 10 -16 13 -8 13
-45 1 -45 -5 0 -18 -3 -28 -7 -15 -6 -16 -4 -6 8 7 9 11 26 8 38 -2 13 1 29 8
36 7 7 12 12 12 11 0 0 9 -11 19 -23z m-417 -23 c1 -11 -2 -20 -8 -20 -10 0
-12 23 -2 33 9 9 9 10 10 -13z m-86 -19 c-7 -5 -12 -12 -11 -17 0 -5 -9 -11
-21 -12 -15 -3 -18 -6 -10 -12 10 -5 9 -9 -3 -13 -28 -11 -18 17 16 45 18 14
35 24 38 22 2 -3 -1 -9 -9 -13z m451 -73 c-7 -7 -12 -8 -12 -2 0 14 12 26 19
19 2 -3 -1 -11 -7 -17z m-522 -12 c0 -3 -4 -8 -10 -11 -5 -3 -10 -1 -10 4 0 6
5 11 10 11 6 0 10 -2 10 -4z m460 -12 c0 -8 -19 -13 -24 -6 -3 5 1 9 9 9 8 0
15 -2 15 -3z m-490 -9 c0 -3 -10 -10 -22 -15 -17 -6 -19 -9 -6 -9 11 -1 15 -6
12 -16 -6 -14 -8 -13 -21 2 -13 16 -14 16 -9 1 5 -18 -16 -42 -27 -31 -4 3 -7
1 -7 -5 0 -7 5 -12 12 -12 6 0 4 -6 -6 -13 -16 -12 -16 -14 -2 -26 9 -8 16
-18 16 -23 0 -17 -31 21 -35 44 -5 25 57 108 81 108 8 0 14 -2 14 -5z m-25
-75 c-3 -5 -12 -10 -18 -10 -7 0 -6 4 3 10 19 12 23 12 15 0z m-75 -90 c0 -5
-5 -10 -11 -10 -5 0 -7 5 -4 10 3 6 8 10 11 10 2 0 4 -4 4 -10z m0 -29 c0 -6
-4 -12 -8 -15 -5 -3 -9 1 -9 9 0 8 4 15 9 15 4 0 8 -4 8 -9z m0 -71 c0 -5 -4
-10 -9 -10 -6 0 -13 5 -16 10 -3 6 1 10 9 10 9 0 16 -4 16 -10z m269 -49 c-2
-6 -10 2 -17 17 -11 25 -11 25 4 10 9 -9 15 -21 13 -27z m-69 -11 c0 -5 -5
-10 -11 -10 -5 0 -7 5 -4 10 3 6 8 10 11 10 2 0 4 -4 4 -10z m50 0 c0 -5 -8
-10 -17 -10 -15 0 -16 2 -3 10 19 12 20 12 20 0z m-332 -25 c1 -14 -2 -25 -7
-25 -6 0 -8 36 -2 48 4 7 7 -1 9 -23z m42 11 c0 -3 -4 -8 -10 -11 -5 -3 -10
-1 -10 4 0 6 5 11 10 11 6 0 10 -2 10 -4z m-70 -21 c0 -8 -4 -15 -10 -15 -5 0
-7 7 -4 15 4 8 8 15 10 15 2 0 4 -7 4 -15z m380 -5 c0 -5 -5 -10 -11 -10 -5 0
-7 5 -4 10 3 6 8 10 11 10 2 0 4 -4 4 -10z m-266 -34 c-7 -17 -44 -23 -44 -6
0 6 9 10 20 10 11 0 20 5 20 12 0 6 2 9 5 6 3 -3 3 -13 -1 -22z m-159 -6 c-3
-5 3 -10 14 -10 12 0 21 -2 21 -4 0 -2 2 -10 5 -18 4 -9 -3 -14 -20 -16 -14
-1 -26 3 -26 8 -1 6 -2 16 -3 23 -3 14 3 27 10 27 3 0 2 -4 -1 -10z m70 -40
c3 -5 1 -10 -4 -10 -6 0 -11 5 -11 10 0 6 2 10 4 10 3 0 8 -4 11 -10z m88
-310 c3 -11 1 -20 -4 -20 -5 0 -9 9 -9 20 0 11 2 20 4 20 2 0 6 -9 9 -20z
m192 -29 c-3 -6 -14 -10 -23 -10 -15 1 -15 2 1 6 9 2 17 9 17 15 0 6 3 9 6 5
3 -3 3 -10 -1 -16z m205 -39 c0 -5 -12 -8 -28 -7 -38 3 -75 -12 -66 -27 5 -8
2 -9 -10 -5 -10 4 -20 7 -22 7 -2 0 -4 5 -4 10 0 6 9 10 21 10 11 0 18 4 15 8
-3 5 17 9 45 11 27 1 49 -2 49 -7z m234 -72 c-12 -19 -21 -26 -25 -18 -4 7 2
20 13 30 29 25 32 23 12 -12z m-359 0 c3 -5 1 -10 -4 -10 -6 0 -11 5 -11 10 0
6 2 10 4 10 3 0 8 -4 11 -10z m395 -42 c0 -19 -2 -20 -10 -8 -13 19 -13 30 0
30 6 0 10 -10 10 -22z m39 15 c0 -5 -7 -24 -14 -43 l-14 -35 1 43 c1 28 6 42
15 42 7 0 13 -3 12 -7z m-522 -45 c-3 -8 -6 -5 -6 6 -1 11 2 17 5 13 3 -3 4
-12 1 -19z m56 -13 c-3 -9 -8 -14 -10 -11 -3 3 -2 9 2 15 9 16 15 13 8 -4z
m157 -69 c0 -3 -4 -8 -10 -11 -5 -3 -10 -1 -10 4 0 6 5 11 10 11 6 0 10 -2 10
-4z m327 -273 c-3 -10 -5 -4 -5 12 0 17 2 24 5 18 2 -7 2 -21 0 -30z m23 -181
c-11 -16 -11 -16 -6 1 3 10 7 58 8 105 l2 87 3 -88 c2 -53 -1 -94 -7 -105z
m-113 153 c0 -8 -4 -12 -9 -9 -5 3 -6 10 -3 15 9 13 12 11 12 -6z m-312 -94
c3 -5 2 -12 -3 -15 -5 -3 -9 1 -9 9 0 17 3 19 12 6z m312 -13 c-3 -8 -6 -5 -6
6 -1 11 2 17 5 13 3 -3 4 -12 1 -19z m-784 -154 c-3 -8 -7 -14 -10 -14 -3 0
-3 6 0 14 3 7 0 20 -6 27 -10 11 -9 11 5 0 9 -7 14 -19 11 -27z m412 -85 c29
1 37 -1 29 -9 -7 -6 -37 -10 -75 -8 -57 3 -61 5 -39 14 14 7 29 9 35 6 5 -3
27 -5 50 -3z m249 -11 c-3 -4 -31 -7 -62 -6 l-57 1 50 6 c71 9 75 9 69 -1z"/>
<path d="M11076 11447 c3 -10 9 -15 12 -12 3 3 0 11 -7 18 -10 9 -11 8 -5 -6z"/>
<path d="M10960 11670 c-8 -5 -10 -10 -5 -10 6 0 17 5 25 10 8 5 11 10 5 10
-5 0 -17 -5 -25 -10z"/>
<path d="M9390 11610 c-19 -11 -29 -19 -22 -20 7 0 10 -4 7 -10 -3 -5 -2 -10
4 -10 15 0 24 20 9 20 -8 0 -6 5 5 11 13 8 23 7 35 -3 15 -11 15 -11 5 3 -7 9
-10 19 -6 22 10 11 0 7 -37 -13z"/>
<path d="M9526 11617 c3 -10 9 -15 12 -12 3 3 0 11 -7 18 -10 9 -11 8 -5 -6z"/>
<path d="M9315 11573 l-30 -17 25 -7 c39 -11 50 -10 50 5 0 10 -7 12 -22 9
-23 -5 -23 -5 -3 10 26 21 18 21 -20 0z"/>
<path d="M9630 11581 c0 -6 9 -31 21 -54 25 -51 33 -87 19 -87 -5 0 -10 -7
-10 -15 0 -8 -16 -22 -37 -30 -37 -16 -61 -11 -31 6 11 6 15 16 11 26 -5 12
-3 14 7 8 9 -5 11 -4 6 4 -16 25 -16 62 -1 77 17 18 20 34 5 34 -5 0 -10 -7
-10 -16 0 -9 -7 -14 -17 -12 -11 2 -18 12 -17 25 0 12 -3 20 -8 17 -4 -3 -8 0
-8 5 0 6 -5 11 -11 11 -6 0 -9 -6 -6 -14 3 -8 -1 -17 -9 -20 -8 -3 -14 1 -14
10 0 13 -6 15 -27 9 -16 -3 -30 -11 -31 -16 -2 -6 -11 -4 -20 3 -12 10 -16 10
-19 1 -3 -8 -12 -9 -28 -3 -19 7 -25 5 -29 -8 -6 -17 -46 -26 -46 -10 0 4 -4
8 -10 8 -5 0 -10 -8 -10 -17 0 -15 -2 -16 -10 -3 -9 13 -11 13 -20 0 -5 -8
-10 -10 -10 -4 0 5 6 16 13 23 10 11 8 12 -8 3 -30 -16 -83 -63 -64 -56 9 3
19 -1 22 -10 4 -10 0 -14 -14 -11 -12 2 -19 -2 -19 -11 0 -15 -12 -19 -23 -7
-4 3 -1 13 6 22 25 32 -70 -49 -124 -105 -106 -112 -216 -281 -183 -281 8 0
13 6 10 12 -2 7 0 18 4 25 5 9 8 1 7 -21 -2 -27 -6 -34 -22 -34 -13 1 -27 -12
-38 -33 -22 -41 -18 -49 10 -22 12 10 25 16 29 12 5 -4 3 0 -4 9 -16 22 -3 32
16 12 25 -24 23 -42 -3 -37 -15 3 -24 -2 -27 -14 -7 -26 2 -42 20 -35 14 6 15
5 2 -8 -18 -20 -41 -20 -59 -1 -18 18 -22 11 -50 -88 -46 -167 -53 -252 -55
-680 -2 -363 -2 -375 3 -115 l6 290 3 -292 c1 -186 -2 -294 -8 -298 -5 -3 -10
-33 -10 -66 0 -50 3 -59 18 -59 14 0 15 2 2 10 -10 6 -11 10 -3 10 9 0 11 10
7 30 -4 20 -2 30 5 30 8 0 10 -8 6 -22 -4 -13 -3 -18 2 -12 4 7 19 14 33 15
20 3 26 -1 28 -18 2 -13 -1 -23 -7 -23 -6 0 -11 4 -11 9 0 5 -7 11 -14 14 -10
4 -13 1 -9 -9 3 -8 2 -14 -3 -12 -5 2 -10 -1 -11 -7 -2 -5 8 -10 22 -9 141 3
155 5 153 17 -2 6 -7 15 -13 19 -5 4 -10 20 -11 35 -1 25 2 29 25 28 14 0 29
-4 33 -10 4 -6 8 -2 8 8 0 10 -6 17 -12 16 -36 -4 -68 2 -68 14 0 9 14 13 45
12 32 -1 45 2 45 12 0 7 5 13 10 13 6 0 10 -4 10 -10 0 -14 28 -12 33 3 2 7 8
8 13 3 5 -5 4 -11 -3 -13 -7 -3 -13 -11 -13 -19 0 -9 5 -12 10 -9 6 3 10 2 10
-4 0 -10 75 -27 100 -22 8 2 17 7 18 12 4 11 55 12 141 3 59 -7 61 -8 61 -35
0 -27 -3 -29 -37 -29 -49 0 -82 -19 -38 -21 17 -1 22 -3 13 -6 -10 -2 -18 -11
-18 -18 0 -18 92 -13 98 5 3 8 0 10 -7 6 -6 -4 -11 -2 -11 4 0 11 40 5 71 -11
13 -7 179 -13 234 -9 17 2 16 3 -5 10 -23 7 -23 8 -3 9 12 1 25 5 28 11 4 6
16 4 31 -6 l24 -16 -1 233 c0 140 -4 226 -9 214 -5 -13 -9 31 -9 117 -1 107
-4 140 -16 152 -8 8 -15 19 -15 25 0 6 -5 11 -11 11 -5 0 -7 5 -4 10 3 6 2 10
-4 10 -5 0 -12 -6 -14 -12 -3 -7 -3 1 0 19 5 29 3 32 -19 29 -13 -1 -30 -6
-38 -11 -9 -5 -15 -4 -18 3 -2 7 -17 12 -33 12 -18 0 -29 5 -29 14 0 9 7 12
20 9 11 -3 20 0 20 6 0 5 -7 8 -16 4 -12 -4 -15 -2 -12 8 3 9 25 16 59 20 30
3 -56 6 -191 7 -140 1 -239 -2 -231 -7 9 -6 10 -11 2 -15 -6 -4 -11 -2 -11 4
0 6 -4 9 -9 5 -5 -3 -13 0 -17 6 -4 8 -3 9 4 5 8 -5 11 1 11 16 -3 54 22 239
41 308 12 41 22 85 22 98 0 13 2 21 5 18 3 -3 25 27 48 67 45 77 147 187 219
237 24 16 77 48 118 70 66 37 56 49 -12 15 -21 -11 -27 -10 -39 2 -7 8 -10 17
-6 21 4 4 10 2 12 -5 3 -9 18 -7 56 8 29 11 54 20 57 20 3 0 6 5 6 12 1 6 2
17 3 22 1 6 8 1 16 -9 13 -17 12 -21 -3 -32 -15 -12 -15 -12 6 -7 12 3 22 6
22 7 0 0 -17 43 -38 93 -38 93 -52 117 -52 94z m-235 -51 c3 -5 1 -10 -4 -10
-6 0 -11 5 -11 10 0 6 2 10 4 10 3 0 8 -4 11 -10z m39 -15 c-7 -16 -24 -21
-24 -6 0 8 7 13 27 20 1 1 0 -6 -3 -14z m106 -51 c0 -21 -27 -47 -35 -34 -3 5
-19 10 -36 10 -16 0 -29 5 -29 10 0 6 9 10 20 10 11 0 20 5 20 10 0 6 14 10
30 10 21 0 30 -5 30 -16z m-383 -36 c-3 -8 -6 -5 -6 6 -1 11 2 17 5 13 3 -3 4
-12 1 -19z m-114 -95 c-10 -3 -10 -10 -2 -26 11 -21 10 -21 -6 -5 -18 17 -13
39 8 37 9 0 9 -2 0 -6z m-35 -58 c0 -14 -4 -25 -9 -25 -5 0 -9 5 -9 11 0 5 -6
7 -12 3 -7 -4 -4 2 6 14 24 27 24 27 24 -3z m314 -32 c-3 -16 -7 -22 -10 -15
-4 13 4 42 11 42 2 0 2 -12 -1 -27z m-324 -2 c11 -7 11 -9 -1 -14 -16 -6 -27
0 -27 15 0 10 11 10 28 -1z m76 -17 c3 -8 2 -12 -4 -9 -6 3 -10 10 -10 16 0
14 7 11 14 -7z m303 10 c-3 -3 -12 -4 -19 -1 -8 3 -5 6 6 6 11 1 17 -2 13 -5z
m-462 -84 c-3 -5 -12 -10 -18 -10 -7 0 -6 4 3 10 19 12 23 12 15 0z m245 -10
c0 -11 -4 -20 -10 -20 -5 0 -10 9 -10 20 0 11 5 20 10 20 6 0 10 -9 10 -20z
m51 1 c-7 -5 -12 -11 -12 -15 3 -22 0 -36 -9 -36 -17 0 -11 42 7 56 10 7 20
10 23 8 2 -3 -1 -9 -9 -13z m109 -1 c0 -5 -2 -10 -4 -10 -3 0 -8 5 -11 10 -3
6 -1 10 4 10 6 0 11 -4 11 -10z m-80 -50 c0 -5 -2 -10 -4 -10 -3 0 -8 5 -11
10 -3 6 -1 10 4 10 6 0 11 -4 11 -10z m30 -5 c-7 -9 -15 -13 -17 -11 -7 7 7
26 19 26 6 0 6 -6 -2 -15z m-350 -35 c0 -5 -2 -10 -4 -10 -3 0 -8 5 -11 10 -3
6 -1 10 4 10 6 0 11 -4 11 -10z m262 -15 c3 -13 1 -22 -4 -19 -5 3 -15 0 -23
-6 -12 -10 -15 -9 -15 9 0 12 4 19 10 16 6 -3 7 1 4 9 -4 10 -1 16 9 16 8 0
17 -11 19 -25z m56 -15 c-5 -17 -15 -30 -22 -29 -6 1 -19 1 -29 0 -17 -1 -17
-2 -3 -17 18 -18 21 -40 6 -49 -6 -4 -7 1 -3 11 4 10 0 20 -10 26 -25 14 -21
25 18 44 19 9 33 20 30 24 -3 5 1 11 7 13 7 3 14 6 15 6 1 1 -3 -13 -9 -29z
m-329 -67 c-7 -19 -7 -29 0 -31 21 -7 11 -23 -11 -20 -14 2 -22 9 -19 18 2 8
3 25 3 38 0 15 7 22 19 22 16 0 17 -4 8 -27z m31 -3 c0 -5 -5 -10 -11 -10 -5
0 -7 5 -4 10 3 6 8 10 11 10 2 0 4 -4 4 -10z m200 -5 c0 -8 -4 -15 -10 -15 -5
0 -7 7 -4 15 4 8 8 15 10 15 2 0 4 -7 4 -15z m-280 -36 c0 -6 -4 -7 -10 -4 -5
3 -10 -1 -10 -9 0 -9 -4 -16 -10 -16 -14 0 -13 18 3 34 13 15 27 12 27 -5z
m140 1 c0 -5 -4 -10 -10 -10 -5 0 -10 5 -10 10 0 6 5 10 10 10 6 0 10 -4 10
-10z m-80 -40 c0 -5 -4 -10 -10 -10 -5 0 -10 5 -10 10 0 6 5 10 10 10 6 0 10
-4 10 -10z m-60 -54 c0 -11 -19 -15 -25 -6 -3 5 1 10 9 10 9 0 16 -2 16 -4z
m556 -314 c2 -8 0 -8 -3 -1 -4 8 -8 7 -14 -2 -7 -12 -9 -11 -9 1 0 13 -1 13
-10 0 -6 -10 -10 -11 -10 -2 0 6 -7 12 -16 12 -14 0 -14 -2 0 -15 8 -8 22 -15
30 -15 9 0 16 -4 16 -10 0 -5 9 -10 20 -10 11 0 20 -4 20 -10 0 -5 -9 -10 -20
-10 -11 0 -20 5 -20 10 0 14 -78 12 -82 -2 -3 -7 -11 -9 -24 -3 -19 8 -19 8 0
13 11 2 25 10 32 17 11 10 10 14 -5 18 -10 2 -26 0 -35 -5 -11 -6 -22 -6 -32
2 -11 10 -14 9 -14 -9 0 -13 -6 -21 -17 -21 -13 0 -14 3 -5 12 10 10 8 16 -10
30 -22 17 -20 18 91 15 83 -1 115 -5 117 -15z m108 5 c-2 -7 -15 -13 -29 -13
-13 0 -21 4 -19 8 3 4 -5 8 -18 8 -18 0 -20 -2 -8 -10 13 -8 12 -10 -2 -10
-18 0 -23 11 -11 23 3 4 26 7 49 7 32 0 42 -4 38 -13z m-567 -19 c-3 -8 -6 -5
-6 6 -1 11 2 17 5 13 3 -3 4 -12 1 -19z m682 -118 l-1 -45 -10 38 c-6 20 -14
37 -19 37 -5 0 -9 4 -9 8 0 4 9 8 20 8 17 0 20 -7 19 -46z m-922 -2 c-3 -8 -6
-5 -6 6 -1 11 2 17 5 13 3 -3 4 -12 1 -19z m982 -146 c-2 -89 -2 -92 -9 -42
-12 83 -12 152 0 145 6 -4 9 -48 9 -103z m-369 -128 c0 -8 -19 -13 -24 -6 -3
5 1 9 9 9 8 0 15 -2 15 -3z m387 -126 c-3 -7 -5 -2 -5 12 0 14 2 19 5 13 2 -7
2 -19 0 -25z m-80 -75 c1 -24 0 -25 -6 -8 -7 17 -6 35 2 35 2 0 3 -12 4 -27z
m82 -27 c-9 -8 -10 -7 -5 7 3 10 7 24 7 30 1 7 3 4 6 -7 3 -10 -1 -23 -8 -30z
m-982 -78 c-2 -13 -4 -5 -4 17 -1 22 1 32 4 23 2 -10 2 -28 0 -40z m928 -48
c3 -6 -1 -7 -9 -4 -18 7 -21 14 -7 14 6 0 13 -4 16 -10z m35 -28 c0 -4 -8 -12
-18 -18 -15 -10 -18 -8 -18 7 0 12 7 19 18 19 10 0 18 -3 18 -8z m-820 -42 c0
-5 -7 -10 -15 -10 -8 0 -15 5 -15 10 0 6 7 10 15 10 8 0 15 -4 15 -10z"/>
<path d="M8816 10984 c-17 -12 -17 -14 -4 -14 9 0 20 5 23 11 11 17 2 18 -19
3z"/>
<path d="M12041 10674 c0 -11 3 -14 6 -6 3 7 2 16 -1 19 -3 4 -6 -2 -5 -13z"/>
<path d="M12010 10579 c0 -22 4 -38 8 -35 8 5 4 76 -4 76 -2 0 -4 -18 -4 -41z"/>
<path d="M11156 10515 c4 -8 8 -15 10 -15 2 0 4 7 4 15 0 8 -4 15 -10 15 -5 0
-7 -7 -4 -15z"/>
<path d="M9734 10315 c0 -49 1 -71 3 -48 2 23 2 64 0 90 -2 26 -3 8 -3 -42z"/>
<path d="M9128 9673 c7 -3 16 -2 19 1 4 3 -2 6 -13 5 -11 0 -14 -3 -6 -6z"/>
<path d="M8990 9659 c-16 -4 5 -7 54 -8 44 -1 77 1 75 3 -8 8 -105 12 -129 5z"/>
<path d="M9687 9663 c-3 -5 -1 -17 4 -28 7 -17 8 -17 8 8 1 27 -4 34 -12 20z"/>
<path d="M9213 9653 c9 -2 25 -2 35 0 9 3 1 5 -18 5 -19 0 -27 -2 -17 -5z"/>
<path d="M8708 9623 c7 -3 16 -2 19 1 4 3 -2 6 -13 5 -11 0 -14 -3 -6 -6z"/>
<path d="M10190 9620 c0 -5 7 -10 15 -10 8 0 15 5 15 10 0 6 -7 10 -15 10 -8
0 -15 -4 -15 -10z"/>
<path d="M8603 8955 c0 -8 4 -12 9 -9 5 3 6 10 3 15 -9 13 -12 11 -12 -6z"/>
<path d="M9272 8597 c-8 -10 -5 -12 16 -11 56 5 58 5 37 14 -29 12 -41 12 -53
-3z"/>
<path d="M9345 8580 c-8 -13 5 -13 25 0 13 8 13 10 -2 10 -9 0 -20 -4 -23 -10z"/>
<path d="M11116 7880 c6 -8 13 -22 16 -30 3 -9 7 -10 11 -3 4 6 -3 19 -16 29
-12 11 -17 12 -11 4z"/>
<path d="M12806 7861 c-3 -5 1 -11 9 -14 9 -4 12 -1 8 9 -6 16 -10 17 -17 5z"/>
<path d="M12920 7816 c0 -2 8 -10 18 -17 15 -13 16 -12 3 4 -13 16 -21 21 -21
13z"/>
<path d="M13035 7720 c10 -11 20 -20 23 -20 3 0 -3 9 -13 20 -10 11 -20 20
-23 20 -3 0 3 -9 13 -20z"/>
<path d="M13093 7674 c9 -11 14 -24 10 -27 -3 -4 -1 -7 5 -7 19 0 14 15 -10
36 -23 19 -23 19 -5 -2z"/>
<path d="M13303 7495 c0 -8 3 -13 5 -10 3 3 12 -1 21 -7 10 -8 9 -4 -3 10 -23
26 -23 26 -23 7z"/>
<path d="M13380 7436 c0 -2 8 -10 18 -17 15 -13 16 -12 3 4 -13 16 -21 21 -21
13z"/>
<path d="M13429 7397 c6 -8 7 -18 3 -23 -4 -5 -3 -6 2 -2 5 4 16 2 25 -4 9 -7
5 0 -8 15 -25 27 -43 39 -22 14z"/>
<path d="M12630 5923 c-41 -12 -68 -30 -106 -68 -64 -63 -84 -119 -91 -247
l-6 -98 -79 0 -79 0 3 -97 3 -98 78 -3 77 -3 0 -389 0 -390 131 0 130 0 -3
390 -3 390 113 0 112 0 0 100 0 100 -116 0 -117 0 6 65 c8 85 27 120 73 135
35 12 104 9 151 -5 21 -7 22 -5 25 99 l3 106 -30 11 c-53 20 -213 21 -275 2z"/>
<path d="M7061 5920 c-316 -67 -521 -291 -562 -615 -35 -273 88 -552 307 -695
150 -98 373 -142 562 -109 l64 11 51 -50 c29 -28 101 -90 160 -139 l108 -88
90 87 c49 48 89 89 89 92 0 2 -30 30 -67 61 -38 32 -94 82 -126 111 l-57 53
51 48 c95 89 171 222 204 360 14 56 16 99 13 195 -8 206 -68 346 -208 489 -60
61 -92 85 -160 117 -47 22 -112 48 -145 57 -70 20 -307 29 -374 15z m274 -254
c280 -74 415 -403 281 -683 -124 -259 -481 -321 -692 -121 -101 96 -145 202
-145 353 0 223 122 395 321 451 60 16 174 17 235 0z"/>
<path d="M10615 5635 l-7 -125 -79 0 -79 0 0 -100 0 -99 78 -3 77 -3 6 -295
c4 -181 10 -309 18 -331 20 -63 65 -115 127 -145 50 -24 69 -28 143 -28 87 0
152 13 184 36 16 12 17 21 7 88 -18 124 -17 121 -46 110 -34 -13 -100 -13
-126 1 -42 23 -48 63 -48 324 l0 245 105 0 105 0 0 100 0 100 -105 0 -105 0 0
125 0 125 -124 0 -124 0 -7 -125z"/>
<path d="M9686 5515 c-237 -60 -388 -274 -373 -530 17 -289 227 -480 527 -479
152 1 281 55 379 160 96 102 133 202 134 359 1 149 -38 249 -132 348 -101 107
-197 147 -366 153 -76 2 -128 -1 -169 -11z m222 -217 c67 -17 145 -96 166
-168 64 -214 -50 -400 -245 -400 -164 0 -273 136 -256 321 17 187 159 292 335
247z"/>
<path d="M11568 5515 c-215 -59 -357 -259 -358 -502 0 -257 147 -448 385 -498
229 -48 436 32 538 208 50 87 54 83 -85 90 l-123 6 -23 -30 c-53 -66 -165 -94
-263 -65 -84 24 -147 95 -165 185 l-6 31 362 0 363 0 -6 90 c-12 163 -52 270
-134 360 -89 97 -200 141 -353 139 -47 0 -106 -7 -132 -14z m264 -220 c44 -31
80 -90 93 -152 l7 -33 -231 0 c-256 0 -245 -3 -216 67 25 60 61 99 117 128 45
22 63 26 120 23 55 -3 75 -9 110 -33z"/>
<path d="M8186 5152 c1 -376 3 -402 49 -492 56 -109 186 -171 330 -157 116 12
193 54 256 140 l29 40 0 -61 c0 -96 -5 -92 131 -92 l119 0 0 490 0 490 -130 0
-129 0 -3 -317 c-3 -365 -5 -371 -91 -430 -113 -76 -255 -39 -287 75 -6 22
-10 170 -10 355 l0 317 -132 0 -133 0 1 -358z"/>
<path d="M12991 5458 c12 -29 32 -80 44 -113 13 -33 89 -227 169 -432 80 -205
146 -379 146 -388 0 -27 -38 -91 -70 -119 -26 -21 -42 -26 -85 -26 -30 0 -66
5 -81 10 -15 6 -29 8 -32 6 -2 -3 -12 -49 -22 -103 -13 -71 -14 -100 -6 -105
26 -17 126 -30 201 -26 67 3 90 10 143 38 105 56 147 120 241 373 28 75 74
199 102 275 45 119 225 596 244 645 7 16 -3 17 -128 17 -133 0 -135 0 -141
-23 -3 -13 -56 -171 -117 -351 l-112 -328 -54 153 c-29 85 -85 243 -124 352
l-71 197 -134 0 -134 0 21 -52z"/>
</g>
</svg>
